<svg id="Layer_1" enable-background="new 0 0 498 498" height="512" viewBox="0 0 498 498" width="512" xmlns="http://www.w3.org/2000/svg"><path d="m408.309 199.86c-21.22 35.34-57.86 55.73-96.16 57.7l-11 18.33 15.23 7.29c16.76 8.03 23.25 28.54 14.16 44.75l-16.63 29.65c-7.36 13.11-22.81 19.38-37.22 15.09l-28.55-8.48-2.88 4.8c-12.78 21.27-36.29 33.729-61.07 32.34-112.002-6.295-85.455-4.805-129.13-7.25-24.07-1.35-41.68-23.24-37.83-47.04 3.154-19.44 19.772-33.889 39.59-34.15 40.484-.506 22.077-.275 83.45-1.05l22.84-38.03-60.98-10.55c-16.3-2.82-27.17-18.41-24.18-34.69h.01c3.07-16.72 19.51-27.46 36.06-23.56l79.19 18.65 12.52-20.85c-47.673-74.548-.372-173.183 87.49-182.79 96.474-10.579 166.246 94.621 115.09 179.84z" fill="#e8f8fc"/><path d="m131.578 251.575c1.95 8.304-5.451 15.836-13.856 14.382l-15.593-2.697c-16.3-2.82-27.17-18.41-24.18-34.69h.01c3.07-16.72 19.51-27.46 36.06-23.56l15.364 3.617c8.388 1.975 12.02 11.825 6.991 18.821-5.043 7.016-6.727 15.905-4.796 24.127z" fill="#f1fafc"/><path d="m334.245 22.633c15.855 3.82 16.286 26.27.639 30.869-70.27 20.652-103.385 97.527-75.881 161.576 6.419 14.949-11.304 28.784-24.313 19.014-46.471-34.902-63.767-101.949-30.76-156.932 27.942-46.542 81.663-66.249 130.315-54.527z" fill="#f1fafc"/><path d="m293.219 20.02 24.392 90.151c4.018 14.852-1.846 30.616-14.594 39.23l-91.419 61.778c-56.534-73.659-10.87-181.046 81.621-191.159z" fill="#75f6fc"/><path d="m305.789 66.48c-39.79 24.58-62.097 70.92-55.22 118.37l-38.97 26.33c-56.819-74.038-10.374-181.101 81.62-191.16z" fill="#bbfbff"/><path d="m140.269 311.84h35.648c2.926 0 5.618-1.597 7.021-4.165l10.645-19.488c2.735-5.007-.5-11.186-6.174-11.79l-24.299-2.587z" fill="#f1fafc"/><path d="m210.978 227.314-17.769-3.654 12.52-20.85c3.174 4.978 6.885 9.919 11.022 14.626 3.816 4.34-.112 11.042-5.773 9.878z" fill="#f1fafc"/><path d="m88.809 312.49v83.48l-33.75-1.89c-24.07-1.35-41.68-23.24-37.83-47.04 3.153-19.438 19.771-33.889 39.59-34.15z" fill="#42434d"/><path d="m68.349 375.662c3.58 9.166-3.465 18.967-13.29 18.418-24.048-1.345-41.683-23.222-37.83-47.04 3.154-19.44 19.772-33.889 39.59-34.15 10.892-.135 16.897 10.679 12.618 19.452-6.647 13.629-6.669 29.032-1.088 43.32z" fill="#4d4e59"/><path d="m316.379 283.18c16.76 8.03 23.25 28.54 14.16 44.75l-16.63 29.65c-7.36 13.11-22.81 19.38-37.22 15.09l-28.55-8.48 53.01-88.3z" fill="#42434d"/><path d="m482.149 397.021c-29.353-1.502-58.002 9.632-78.63 30.555l-5.485 5.563c-18.675 18.941-46.065 25.842-71.485 18.005-7.788-2.401-27.978-6.643-36.914-29.668-3.985-10.268-4.142-21.36-.648-31.529 15.923-.987 30.652-9.88 38.875-24.539l16.633-29.649c12.243-21.824 5.813-49.902-15.811-63.96 78.28-13.378 127.584-90.028 108.601-166.045-16.486-66.007-78.644-108.395-144.612-101.715-.812.028-1.628.12-2.447.276-94.902 11.347-148.216 114.275-103.067 198.341l-1.653 2.753-67.816-15.976c-40.498-9.529-72.061 36.18-48.008 70.677 7.039 10.098 17.595 16.813 29.721 18.911l37.967 6.57-6.221 10.362-74.53.94c-47.453.6-72.753 55.623-43.413 92.108 10.036 12.48 24.964 20.154 40.955 21.052 139.621 7.835 130.476 7.378 133.836 7.378 26.732 0 51.643-12.826 67.185-34.459l2.231.664c-11.289 39.761 10.766 83.001 52.154 95.759 9.195 2.835 20.732 6.939 38.045 6.939 27.115-.001 53.508-10.744 73.21-30.729l5.485-5.563c14.221-14.422 33.968-22.084 54.204-21.063 8.796.464 16.347-6.333 16.798-15.159.452-8.825-6.335-16.346-15.16-16.799zm-165.564-76.919-16.633 29.65c-3.723 6.635-11.418 9.751-18.705 7.585l-8.769-2.607 34.892-58.12c2.417 1.157 8.202 3.358 10.528 10.706 1.363 4.306.897 8.846-1.313 12.786zm78.007-128.479c-33.819 56.332-110.829 66.98-158.732 22.473l97.428-65.839c5.665-3.829 8.271-10.835 6.485-17.436l-25.753-95.18c76.835 5.777 119.809 90.626 80.572 155.982zm-112.993-153.289 24.3 89.809-89.835 60.708c-33.226-59.671-.691-134.304 65.535-150.517zm-248.577 311.254c1.913-11.841 12.007-20.545 24.001-20.696l15.787-.199v50.358l-16.855-.946c-14.625-.822-25.266-14.076-22.933-28.517zm152.066 35.763-80.278-4.505v-52.558l35.666-.45c5.546-.07 10.661-3.008 13.516-7.764l17.189-28.632 55.278 9.565c8.7 1.508 16.987-4.326 18.494-13.037 1.507-8.708-4.33-16.987-13.037-18.494l-127.057-21.986c-7.538-1.303-12.552-8.498-11.168-16.021 1.419-7.722 8.993-12.691 16.661-10.887l79.189 18.654c6.452 1.516 13.449-.778 17.938-8.257 20.27 21.638 47.619 36.337 77.304 41.084l-53.242 88.686c-9.747 16.235-27.533 25.667-46.453 24.602zm255.837-112.351c0-8.837 7.163-16 16-16s16 7.163 16 16v7.5h8.404c8.837 0 16 7.163 16 16s-7.163 16-16 16h-8.404v7.5c0 8.837-7.163 16-16 16s-16-7.163-16-16v-7.5h-6.596c-8.837 0-16-7.163-16-16s7.163-16 16-16h6.596zm-316.596 191c0 8.837-7.163 16-16 16h-2.692v2c0 8.837-7.163 16-16 16s-16-7.163-16-16v-2c-23.068 0-23.061-32 0-32v-2c0-8.837 7.163-16 16-16s16 7.163 16 16v2h2.692c8.837 0 16 7.163 16 16zm-110-424.5c0-8.837 7.163-16 16-16h6.596v-7.5c0-8.837 7.163-16 16-16s16 7.163 16 16v7.5h8.404c8.837 0 16 7.163 16 16s-7.163 16-16 16h-8.404v7.5c0 8.837-7.163 16-16 16s-16-7.163-16-16v-7.5h-6.596c-8.836 0-16-7.163-16-16z"/></svg>