<svg id="Capa_1" enable-background="new 0 0 512.405 512.405" height="512" viewBox="0 0 512.405 512.405" width="512" xmlns="http://www.w3.org/2000/svg"><g><g><path d="m181.714 150.725-85.604 49.714c-108.646 63.096-108.24 220.146.73 282.68 96.064 55.127 217.969.592 240.897-107.767l1.725-8.154 66.75-115.015c4.772-8.223 3.414-18.628-3.308-25.351-7.829-7.829-20.397-8.221-28.699-.895l-31.801 28.062c-6.872 6.064-17.242 5.861-23.872-.467l-.319-.305c-7.361-7.026-7.614-18.595-.616-25.869 34.447-35.803 129.923-135.043 170.916-177.652 10.181-10.583 8.88-27.67-2.785-36.59l-.48-.367c-9.797-7.492-23.402-6.905-32.422 1.313-32.135 29.278-104.891 95.522-129.99 118.374-5.064 4.61-12.674 5.002-18.187.939-6.7-4.944-7.81-14.53-2.417-20.874l9.868-11.609c9.776-11.501 6.071-29.135-7.506-35.73-8.205-3.985-17.988-2.767-24.965 3.108z" fill="#fee97d"/><path d="m152.865 427.094c-83.4-47.86-103.204-151.113-59.202-225.207-106.164 64.027-104.961 219.175 3.177 281.231 79.834 45.813 177.527 15.869 221.414-57.743-48.303 28.966-110.996 32.933-165.389 1.719z" fill="#fee45a"/><path d="m189.734 273.51c-6.208-12.711-20.819-18.919-34.278-14.565l-39.461 12.767c-9.971 3.226-17.357 11.678-19.216 21.992l-4.204 23.313c-.857 4.754-2.913 9.211-5.972 12.95l-5.173 6.322c-6.807 8.32-8.336 19.769-3.951 29.584l5.467 12.235c2.387 5.342 3.066 11.29 1.946 17.033l-1.02 5.226c-2.113 10.83 2.235 21.905 11.152 28.404l23.667 17.249c4.861 3.543 10.72 5.451 16.735 5.451h23.163c2.167 0 4.326.248 6.436.739l13.725 3.192c10.139 2.358 20.757-1.018 27.673-8.798l1.465-1.649c3.859-4.342 8.957-7.396 14.606-8.752l15.655-3.757c9.052-2.172 16.465-8.641 19.844-17.314l11.461-29.417c3.927-10.079 1.79-21.514-5.511-29.495l-14.94-16.33c-4.208-4.599-6.786-10.455-7.338-16.664l-.545-6.128c-1.031-11.594-9.028-21.386-20.181-24.713l-13.795-4.114c-7.611-2.272-13.925-7.624-17.41-14.761z" fill="#ee6161"/><path d="m206.424 446.602.081-.091c-18.231-3.142-36.354-9.497-53.64-19.417-36.775-21.104-61.178-52.975-73.205-88.364-5.258 8.031-6.153 18.253-2.182 27.142l5.467 12.235c2.387 5.342 3.066 11.29 1.946 17.033l-1.02 5.226c-2.113 10.83 2.235 21.905 11.153 28.404l23.667 17.249c4.861 3.543 10.72 5.451 16.735 5.451h23.163c2.167 0 4.326.248 6.436.739l13.725 3.192c10.14 2.357 20.758-1.019 27.674-8.799z" fill="#e94444"/><g fill="#fee45a"><path d="m469.185 120.667-32.475 35.605c-5.547 6.081-5.332 15.449.489 21.27 6.015 6.015 15.766 6.015 21.781 0l33.997-33.997c5.9-5.9 6.029-15.426.29-21.483l-1.523-1.607c-6.153-6.498-16.529-6.4-22.559.212z"/><path d="m163.977 56.818-23.43 21.478c-7.477 6.854-7.731 18.559-.559 25.731 6.525 6.525 16.951 6.988 24.029 1.068l24.502-20.496c8.263-6.912 8.549-19.519.608-26.799l-1.071-.982c-6.813-6.243-17.268-6.243-24.079 0z"/></g></g><g><path d="m408.207 221.529c-10.604-10.604-27.72-11.139-38.965-1.216l-31.8 28.062c-3.986 3.517-9.888 3.401-13.733-.27l-.318-.304c-2.114-2.018-3.312-4.721-3.374-7.612-.061-2.858.999-5.569 2.983-7.631l170.918-177.652c6.333-6.582 9.566-15.58 8.874-24.687-.693-9.107-5.252-17.513-12.506-23.061l-.481-.368c-12.643-9.669-30.318-8.942-42.029 1.727-14.417 13.136-37.013 33.713-59.812 54.474-3.062 2.789-3.284 7.532-.496 10.595 2.789 3.062 7.533 3.284 10.595.496 22.8-20.762 45.396-41.34 59.815-54.477 6.344-5.78 15.939-6.158 22.813-.9l.481.368c3.922 2.999 6.288 7.362 6.663 12.284s-1.304 9.591-4.727 13.149l-170.917 177.652c-4.77 4.958-7.317 11.476-7.17 18.351.147 6.907 2.993 13.351 8.014 18.144l.318.304c9.52 9.087 24.143 9.374 34.014.666l31.801-28.062c5.32-4.695 13.416-4.443 18.434.575 4.312 4.312 5.186 11.008 2.125 16.283l-66.75 115.015c-.399.688-.686 1.435-.851 2.212l-1.725 8.154c-5.442 25.721-16.695 48.761-33.445 68.48-2.682 3.157-2.296 7.89.861 10.572 1.411 1.198 3.135 1.784 4.852 1.784 2.125 0 4.236-.898 5.72-2.645 18.38-21.639 30.724-46.901 36.688-75.086l1.477-6.98 66.147-113.977c6.469-11.15 4.622-25.303-4.494-34.419z"/><path d="m275.022 463.461c-50.396 39.884-118.872 45.046-174.449 13.153-48.824-28.018-78.059-78.352-78.205-134.643s28.829-106.776 77.507-135.045l85.604-49.714c.376-.218.732-.469 1.064-.749l97.915-82.455c4.707-3.963 11.324-4.786 16.857-2.099 4.37 2.123 7.449 6.067 8.448 10.822.999 4.754-.233 9.604-3.379 13.305l-9.868 11.609c-3.912 4.602-5.757 10.682-5.062 16.682s3.88 11.498 8.744 15.088c8.363 6.162 20.006 5.56 27.686-1.432l46.518-42.355c3.063-2.789 3.285-7.532.496-10.595-2.789-3.062-7.533-3.285-10.595-.496l-46.518 42.354c-2.41 2.193-6.063 2.382-8.684.451-1.55-1.144-2.525-2.827-2.747-4.74-.221-1.913.343-3.774 1.59-5.242l9.868-11.609c6.173-7.262 8.589-16.776 6.63-26.104s-8-17.066-16.574-21.23c-10.859-5.273-23.84-3.657-33.073 4.118l-97.415 82.034-85.04 49.386c-53.365 30.992-85.13 86.34-84.971 148.055.16 61.714 32.211 116.897 85.739 147.614 26.593 15.261 55.868 22.784 85.021 22.782 37.642-.002 75.075-12.548 106.202-37.182 3.248-2.571 3.797-7.288 1.227-10.536-2.571-3.248-7.288-3.798-10.536-1.227z"/><path d="m76.51 398.929c-2.671 13.689 2.825 27.687 14.096 35.901l23.666 17.248c6.144 4.478 13.551 6.891 21.153 6.891h23.164c1.594 0 3.182.182 4.734.543l13.728 3.193c2.707.629 5.438.937 8.147.937 10.126 0 19.927-4.292 26.83-12.057l1.466-1.649c2.841-3.196 6.593-5.444 10.751-6.442l15.655-3.757c11.441-2.746 20.811-10.921 25.082-21.884l11.461-29.417c5-12.833 2.331-27.119-6.966-37.28l-14.941-16.331c-3.097-3.385-4.995-7.695-5.401-12.266l-.544-6.127c-1.302-14.653-11.409-27.031-25.506-31.235l-13.797-4.115c-5.549-1.655-10.227-5.506-12.745-10.72-7.754-16.06-26.44-24.04-43.396-18.553 0 0-21.811 7.072-33.69 10.936-4.08 1.327-6.208 5.801-4.672 9.807 1.427 3.723 5.513 5.679 9.306 4.448 11.507-3.737 33.673-10.92 33.673-10.92 9.857-3.19 20.717 1.436 25.247 10.756 4.503 9.265 13.027 15.947 22.9 18.891l12.886 3.843c8.209 2.448 14.095 9.656 14.853 18.189l.544 6.129c.694 7.803 3.988 15.283 9.275 21.062l14.94 16.331c5.374 5.874 6.947 14.29 4.057 21.709l-11.461 29.416c-2.487 6.384-7.944 11.146-14.607 12.745l-15.655 3.757c-7.139 1.713-13.582 5.574-18.46 11.061l-1.467 1.65c-5.095 5.731-12.897 8.214-20.368 6.476l-13.727-3.192c-2.667-.62-5.395-.933-8.133-.933h-23.164c-4.458 0-8.717-1.387-12.318-4.012l-23.666-17.248c-6.564-4.784-9.764-12.935-8.209-20.907l1.02-5.225c1.416-7.258.557-14.777-2.459-21.529l-5.467-12.236c-3.228-7.224-2.102-15.651 2.908-21.774l5.173-6.322c3.857-4.715 6.468-10.375 7.548-16.369l3.256-18.052c.728-4.039-1.748-8.123-5.764-8.974-4.158-.881-8.194 1.851-8.943 6.005l-3.311 18.36c-.631 3.499-2.144 6.78-4.396 9.532l-5.173 6.322c-8.604 10.516-10.537 24.987-4.994 37.392l5.467 12.236c1.757 3.932 2.257 8.31 1.432 12.537z"/><path d="m498.713 116.903-1.523-1.608c-4.313-4.552-10.363-7.151-16.628-7.151-.071 0-.143 0-.214.001-6.342.06-12.43 2.782-16.704 7.467l-32.474 35.605c-8.266 9.062-7.947 22.954.726 31.627 4.465 4.464 10.33 6.696 16.194 6.696 5.865 0 11.729-2.232 16.194-6.697l33.998-33.998c8.838-8.837 9.027-22.869.431-31.942zm-11.039 21.337-33.998 33.998c-3.08 3.081-8.093 3.082-11.174 0-2.993-2.993-3.103-7.786-.25-10.912l32.475-35.605c1.496-1.641 3.542-2.556 5.763-2.577h.078c2.19 0 4.224.874 5.732 2.466l1.523 1.608c2.966 3.132 2.901 7.973-.149 11.022z"/><path d="m152.574 116.792c5.738 0 11.498-1.966 16.254-5.944l24.502-20.496c5.596-4.681 8.9-11.55 9.066-18.844.165-7.294-2.825-14.305-8.203-19.236l-1.071-.981c-9.751-8.94-24.461-8.94-34.213 0l-23.43 21.478c-5.139 4.71-8.052 11.143-8.204 18.112s2.48 13.522 7.409 18.451c4.952 4.951 11.408 7.46 17.89 7.46zm-6.96-32.967 23.43-21.478c1.987-1.821 4.479-2.732 6.971-2.732s4.984.911 6.971 2.732l1.071.982c2.224 2.039 3.411 4.822 3.343 7.838s-1.38 5.743-3.694 7.679l-24.502 20.496c-4.126 3.451-10.108 3.187-13.914-.618-2.008-2.009-3.081-4.679-3.019-7.519.063-2.84 1.25-5.461 3.343-7.38z"/><path d="m192.963 226.281 46.481-41.781c3.081-2.769 3.333-7.511.564-10.591-2.769-3.081-7.511-3.334-10.591-.564l-46.481 41.781c-3.081 2.769-3.333 7.511-.564 10.591 1.481 1.648 3.526 2.486 5.58 2.486 1.785 0 3.578-.634 5.011-1.922z"/><path d="m300.885 176.796c-2.902-2.954-7.649-2.997-10.606-.095l-29.247 28.728c-2.955 2.903-2.997 7.651-.095 10.606 1.469 1.495 3.409 2.244 5.351 2.244 1.896 0 3.795-.715 5.255-2.149l29.247-28.728c2.955-2.902 2.998-7.651.095-10.606z"/><path d="m437.538 306.9c-3.16-2.68-7.893-2.289-10.571.871l-59.336 69.983c-2.679 3.159-2.289 7.892.871 10.571 1.41 1.195 3.132 1.779 4.846 1.779 2.127 0 4.241-.9 5.725-2.65l59.336-69.983c2.679-3.159 2.289-7.892-.871-10.571z"/><path d="m466.335 276.084c-3.097-2.751-7.838-2.473-10.588.623l-8.621 9.699c-2.752 3.096-2.473 7.836.623 10.588 1.429 1.27 3.208 1.895 4.98 1.895 2.068 0 4.127-.85 5.608-2.517l8.621-9.699c2.752-3.097 2.473-7.837-.623-10.589z"/></g></g></svg>