<svg xmlns="http://www.w3.org/2000/svg" xmlns:xlink="http://www.w3.org/1999/xlink" viewBox="0 0 500 500"><defs><clipPath id="freepik--clip-path--inject-37"><path d="M215,196.19s-16-3-18-3.5-20.5-16-20.5-16l-12.78-32.17-6.68,1.8s1.21,19.62,2,25.12,5,16.25,5.5,17.25,3,4,4,4.25,12.75,9,15.5,10.5,13.75,8,13.75,8,5.5,14,6.25,16.75,4.25,20.5,4.5,22.5-1,3.5,0,5.25,8.25,6.75,18.25,6.75,19-3.5,20-6.5-.5-12.25-.5-13,1-11.75,1-11.75,5.25,10.75,7.5,14.25,5.75,8.25,8.25,8.25,34.25-19.5,34.25-19.5l-1.5-6.25a60.72,60.72,0,0,1-14.5,4.5c-7,1-16.5,3.5-16.5,3.5s-9.25-20.25-10.25-24-2.5-10.5-3.75-11.75-18.25-3.75-20.5-3.75S215,196.19,215,196.19Z" style="fill:#fff;stroke:#263238;stroke-linecap:round;stroke-linejoin:round"></path></clipPath><clipPath id="freepik--clip-path-2--inject-37"><path d="M215.32,184.64s1.83,8.82,2.5,10.48,6.32,9.82,7.49,9.82,4.83-9,5-10.48.17-5,.17-5-5.66,1.5-8.32-.33-5-6.32-6-6.32S215.32,184.64,215.32,184.64Z" style="fill:#fff;stroke:#263238;stroke-linecap:round;stroke-linejoin:round"></path></clipPath><clipPath id="freepik--clip-path-3--inject-37"><path d="M235.13,164.83s.5,8.16,1,11.82.66,8-1.17,10.82-3.66,4.66-7.49,5.16-8.65-1.83-10.15-4.16-2.83-4.66-2.83-4.66a7.22,7.22,0,0,1-3.16-.84c-1.5-.83-2.83-4.66-2.33-6.16s3-1.66,3-1.66-1.16-5.16-1.83-8.66a7.36,7.36,0,0,1,5.33-8.48c4.16-1.34,10.32-1.17,13.48.5S234.3,162,235.13,164.83Z" style="fill:#fff;stroke:#263238;stroke-linecap:round;stroke-linejoin:round"></path></clipPath></defs><g id="freepik--background-simple--inject-37"><path d="M456,247a261.81,261.81,0,0,0-2.65-41.6c-4.69-33.6-14.91-71.18-41.37-94.4-47.79-41.94-142.71-53-193.83-10.62-16.16,13.39-30.7,24.49-50.72,32.06C144.9,141,121,142.07,98.3,149.74c-13.11,4.43-25.65,11.44-34.64,22C32.46,208.24,46.55,271.42,70,308c16.88,26.33,43.11,44.19,71.81,55.55,14,5.53,29.75,12.15,44.91,12.76,19.35.77,37.53-7.87,55.11-14.76,55.44-21.73,116.55,10.86,170.22-21.05C444.5,321.21,455.24,282.52,456,247Z" style="fill:#92E3A9"></path><path d="M456,247a261.81,261.81,0,0,0-2.65-41.6c-4.69-33.6-14.91-71.18-41.37-94.4-47.79-41.94-142.71-53-193.83-10.62-16.16,13.39-30.7,24.49-50.72,32.06C144.9,141,121,142.07,98.3,149.74c-13.11,4.43-25.65,11.44-34.64,22C32.46,208.24,46.55,271.42,70,308c16.88,26.33,43.11,44.19,71.81,55.55,14,5.53,29.75,12.15,44.91,12.76,19.35.77,37.53-7.87,55.11-14.76,55.44-21.73,116.55,10.86,170.22-21.05C444.5,321.21,455.24,282.52,456,247Z" style="fill:#fff;opacity:0.7000000000000001"></path></g><g id="freepik--Shadow--inject-37"><ellipse cx="223" cy="404.5" rx="63" ry="19.5" style="fill:#92E3A9"></ellipse><ellipse cx="223" cy="404.5" rx="63" ry="19.5" style="fill:#fff;opacity:0.5"></ellipse></g><g id="freepik--Plants--inject-37"><path d="M344.56,321.19s4.68-3.7,5.87-6.07c1-2,1.76-4.87.71-7a4,4,0,0,0-5.69-1.83c-2.88,1.8-3.19,7.91-2.45,10.84C343.06,317.37,344.51,321.23,344.56,321.19Z" style="fill:#92E3A9"></path><path d="M301.31,352c.19.18,3.53,2.6,3.55,2.54s1.86-5.66,1.55-8.3c-.26-2.24-1.22-5-3.28-6.25a4,4,0,0,0-5.75,1.62C296,344.65,299.08,349.92,301.31,352Z" style="fill:#92E3A9"></path><path d="M399.32,326.78s-17.12,17.68-17,39.39,17.37,39.25,17.37,39.25,17.13-17.68,17-39.39S399.32,326.78,399.32,326.78Z" style="fill:#92E3A9"></path><path d="M374.91,379.18a7.81,7.81,0,0,0,.62-.78c1.24-1.89,2.31-4.64,1.51-6.9A4,4,0,0,0,371.6,369c-2.33,1.1-3.47,4.82-3.71,7.87-.93-.21-1.77-.37-2.49-.49-.3-.69-.61-1.39-.93-2.09s-.57-1.45-.87-2.18c-.41-1.09-.77-2.23-1.15-3.36,1.36-.61,5.3-2.45,6.77-4.08s3-4.23,2.54-6.58a4,4,0,0,0-5-3.27c-3.25,1-5.16,6.78-5.23,9.81,0,.1.05.74.12,1.5-.32-1.12-.66-2.24-.95-3.38-.84-3.25-1.59-6.59-2.35-9.93-.16-.7-.33-1.39-.49-2.09,1.14-.5,5.43-2.46,7-4.17s3-4.23,2.54-6.58a4,4,0,0,0-5-3.27c-3.25,1-5.16,6.78-5.23,9.81,0,.11.06.87.14,1.73-.44-1.81-.9-3.61-1.42-5.38a71.24,71.24,0,0,0-3.2-8.92c.41-.18,5.49-2.37,7.2-4.27,1.51-1.67,3-4.23,2.53-6.58a4,4,0,0,0-5-3.27c-3.25,1-5.16,6.78-5.23,9.81,0,.21.25,3,.37,4a.42.42,0,0,1,0-.1,52.17,52.17,0,0,0-4.66-8.06,72.79,72.79,0,0,0-5.15-6.54c-1.69-1.94-3.35-3.62-4.83-5.09-.81-.79-1.57-1.5-2.28-2.15h.07c.06,0-1.58-3.78-1.71-4-1.52-2.62-6-6.79-9.31-6.07a4,4,0,0,0-2.82,5.27c.75,2.28,3.26,3.81,5.4,4.55s7,.39,8.17.29c.72.69,1.49,1.44,2.32,2.29,1.45,1.5,3.07,3.2,4.71,5.18.44.52.89,1.1,1.33,1.66-.94-.78-2.26-1.84-2.4-1.92-2.55-1.63-8.45-3.27-11.06-1.1a4,4,0,0,0-.06,6c1.7,1.68,4.65,1.88,6.88,1.55s6.51-2.95,7.42-3.53c1,1.25,1.93,2.55,2.86,4a51.92,51.92,0,0,1,4.43,8.05c.07.16.12.34.19.51-.4-.47-2.78-2.88-3-3-2.36-1.89-8-4.17-10.87-2.3a4,4,0,0,0-.72,5.93c1.51,1.85,4.41,2.38,6.67,2.29,2.61-.09,7.74-2.68,7.93-2.78a71,71,0,0,1,2.9,8.7c.58,2.19,1.09,4.43,1.57,6.68-.53-.59-2.75-2.83-2.93-3-2.36-1.9-8-4.17-10.87-2.31a4,4,0,0,0-.72,5.93c1.51,1.86,4.41,2.38,6.67,2.3,2.55-.09,7.48-2.55,7.89-2.76.22,1,.44,2,.65,3.07.7,3.35,1.38,6.72,2.15,10,.27,1.14.57,2.25.87,3.38-.83-.87-2.37-2.42-2.52-2.54-2.36-1.9-8-4.17-10.87-2.31a4,4,0,0,0-.72,5.93c1.51,1.86,4.41,2.38,6.67,2.3s6.46-2.06,7.64-2.64c.51,1.86,1.06,3.7,1.69,5.48.29.76.53,1.55.85,2.27l.48,1.14-.65-.07s-.05,1.06.05,2.79c-2.49-1.78-6.08-3.31-8.42-2.23a4,4,0,0,0-1.61,5.75,5,5,0,0,0,.52.72,15.54,15.54,0,0,0,3.22,7.17c.13.15,1.82,1.71,2.7,2.49-.85-.46-1.7-.92-2.58-1.42-1.27-.7-2.59-1.49-3.88-2.24l-2-1.26c-.68-.42-1.28-.89-1.93-1.34-.94-.68-1.88-1.43-2.82-2.17.8-1.25,3.07-5,3.4-7.13s.15-5.18-1.52-6.9a4,4,0,0,0-6,0c-2.18,2.6-.57,8.5,1.05,11.07.05.08.45.59.92,1.18-.89-.75-1.78-1.5-2.66-2.29-2.49-2.25-5-4.62-7.44-7l-1.56-1.47c.68-1,3.17-5,3.52-7.32s.15-5.18-1.52-6.89a4,4,0,0,0-6,0c-2.18,2.6-.57,8.5,1,11.06.06.09.54.7,1.08,1.37-1.37-1.27-2.75-2.51-4.16-3.7a69.08,69.08,0,0,0-7.59-5.68c.25-.37,3.27-5,3.65-7.53.34-2.23.15-5.18-1.52-6.89a4,4,0,0,0-6,0c-2.18,2.6-.57,8.5,1.05,11.06.11.18,1.85,2.35,2.49,3.11l-.09-.07a52.45,52.45,0,0,0-8.33-4.14,70.75,70.75,0,0,0-7.9-2.62c-2.48-.69-4.79-1.17-6.84-1.58-1.11-.21-2.13-.38-3.08-.53l.05-.05c.05,0-3.41-2.28-3.64-2.4-2.71-1.35-8.75-2.35-11.11.07a4,4,0,0,0,.56,5.95c1.87,1.49,4.82,1.38,7,.82s6-3.52,7-4.27c1,.18,2,.38,3.2.63,2,.45,4.33,1,6.78,1.72.66.2,1.35.44,2,.66-1.22-.14-2.9-.29-3.06-.29-3,.06-8.85,1.94-9.83,5.19a4,4,0,0,0,3.24,5c2.35.45,4.91-1,6.6-2.51s3.8-6.05,4.23-7c1.5.5,3,1.06,4.58,1.73a52.17,52.17,0,0,1,8.14,4.27l.43.32c-.59-.17-3.9-.87-4.14-.89-3-.28-9,1-10.34,4.08a4,4,0,0,0,2.67,5.34c2.28.72,5-.45,6.83-1.77,2.12-1.51,5-6.5,5.08-6.69a69.7,69.7,0,0,1,7.22,5.66c1.69,1.5,3.35,3.09,5,4.7-.78-.2-3.86-.84-4.09-.86-3-.28-9,.95-10.34,4.07a4,4,0,0,0,2.67,5.34c2.29.72,5-.45,6.84-1.76,2.07-1.48,4.82-6.25,5.05-6.66l2.24,2.21c2.43,2.41,4.85,4.84,7.31,7.17.86.8,1.73,1.57,2.6,2.33-1.17-.26-3.31-.71-3.5-.72-3-.28-9,.95-10.34,4.07a4,4,0,0,0,2.67,5.35c2.28.71,5-.46,6.83-1.77s4.25-5.28,4.91-6.41c1.46,1.27,2.93,2.49,4.44,3.63.66.48,1.3,1,2,1.43l1.95,1.3c1.36.84,2.62,1.63,3.91,2.38l1.9,1.1c-1.15-.45-3-1.13-3.15-1.17-2.94-.74-9.05-.42-10.84,2.46a4,4,0,0,0,1.83,5.68c2.15,1.06,5,.31,7-.71,2.23-1.12,5.58-5.27,6-5.78,1.56.89,3.08,1.74,4.52,2.51,3.84,2.05,7.2,3.69,9.8,4.92,8.46,7.31,20.36,8.11,20.36,8.11s.63-14.25-7.76-23.64A29.45,29.45,0,0,0,374.91,379.18Zm-15.1,13.9c.26-.58,2.29-5.11,2.43-7.67.47-.08.94-.18,1.4-.29a33,33,0,0,0,5.25,12.55q-2.31-1.1-5-2.44C362.6,394.57,361.22,393.84,359.81,393.08Z" style="fill:#92E3A9"></path><path d="M437.29,376.45s-14.27.44-23,9.51-8.62,23.34-8.62,23.34,14.26-.44,23-9.51S437.29,376.45,437.29,376.45Z" style="fill:#92E3A9"></path><g style="opacity:0.5"><path d="M344.56,321.19s4.68-3.7,5.87-6.07c1-2,1.76-4.87.71-7a4,4,0,0,0-5.69-1.83c-2.88,1.8-3.19,7.91-2.45,10.84C343.06,317.37,344.51,321.23,344.56,321.19Z" style="fill:#fff"></path><path d="M301.31,352c.19.18,3.53,2.6,3.55,2.54s1.86-5.66,1.55-8.3c-.26-2.24-1.22-5-3.28-6.25a4,4,0,0,0-5.75,1.62C296,344.65,299.08,349.92,301.31,352Z" style="fill:#fff"></path><path d="M399.32,326.78s-17.12,17.68-17,39.39,17.37,39.25,17.37,39.25,17.13-17.68,17-39.39S399.32,326.78,399.32,326.78Z" style="fill:#fff"></path><path d="M374.91,379.18a7.81,7.81,0,0,0,.62-.78c1.24-1.89,2.31-4.64,1.51-6.9A4,4,0,0,0,371.6,369c-2.33,1.1-3.47,4.82-3.71,7.87-.93-.21-1.77-.37-2.49-.49-.3-.69-.61-1.39-.93-2.09s-.57-1.45-.87-2.18c-.41-1.09-.77-2.23-1.15-3.36,1.36-.61,5.3-2.45,6.77-4.08s3-4.23,2.54-6.58a4,4,0,0,0-5-3.27c-3.25,1-5.16,6.78-5.23,9.81,0,.1.05.74.12,1.5-.32-1.12-.66-2.24-.95-3.38-.84-3.25-1.59-6.59-2.35-9.93-.16-.7-.33-1.39-.49-2.09,1.14-.5,5.43-2.46,7-4.17s3-4.23,2.54-6.58a4,4,0,0,0-5-3.27c-3.25,1-5.16,6.78-5.23,9.81,0,.11.06.87.14,1.73-.44-1.81-.9-3.61-1.42-5.38a71.24,71.24,0,0,0-3.2-8.92c.41-.18,5.49-2.37,7.2-4.27,1.51-1.67,3-4.23,2.53-6.58a4,4,0,0,0-5-3.27c-3.25,1-5.16,6.78-5.23,9.81,0,.21.25,3,.37,4a.42.42,0,0,1,0-.1,52.17,52.17,0,0,0-4.66-8.06,72.79,72.79,0,0,0-5.15-6.54c-1.69-1.94-3.35-3.62-4.83-5.09-.81-.79-1.57-1.5-2.28-2.15h.07c.06,0-1.58-3.78-1.71-4-1.52-2.62-6-6.79-9.31-6.07a4,4,0,0,0-2.82,5.27c.75,2.28,3.26,3.81,5.4,4.55s7,.39,8.17.29c.72.69,1.49,1.44,2.32,2.29,1.45,1.5,3.07,3.2,4.71,5.18.44.52.89,1.1,1.33,1.66-.94-.78-2.26-1.84-2.4-1.92-2.55-1.63-8.45-3.27-11.06-1.1a4,4,0,0,0-.06,6c1.7,1.68,4.65,1.88,6.88,1.55s6.51-2.95,7.42-3.53c1,1.25,1.93,2.55,2.86,4a51.92,51.92,0,0,1,4.43,8.05c.07.16.12.34.19.51-.4-.47-2.78-2.88-3-3-2.36-1.89-8-4.17-10.87-2.3a4,4,0,0,0-.72,5.93c1.51,1.85,4.41,2.38,6.67,2.29,2.61-.09,7.74-2.68,7.93-2.78a71,71,0,0,1,2.9,8.7c.58,2.19,1.09,4.43,1.57,6.68-.53-.59-2.75-2.83-2.93-3-2.36-1.9-8-4.17-10.87-2.31a4,4,0,0,0-.72,5.93c1.51,1.86,4.41,2.38,6.67,2.3,2.55-.09,7.48-2.55,7.89-2.76.22,1,.44,2,.65,3.07.7,3.35,1.38,6.72,2.15,10,.27,1.14.57,2.25.87,3.38-.83-.87-2.37-2.42-2.52-2.54-2.36-1.9-8-4.17-10.87-2.31a4,4,0,0,0-.72,5.93c1.51,1.86,4.41,2.38,6.67,2.3s6.46-2.06,7.64-2.64c.51,1.86,1.06,3.7,1.69,5.48.29.76.53,1.55.85,2.27l.48,1.14-.65-.07s-.05,1.06.05,2.79c-2.49-1.78-6.08-3.31-8.42-2.23a4,4,0,0,0-1.61,5.75,5,5,0,0,0,.52.72,15.54,15.54,0,0,0,3.22,7.17c.13.15,1.82,1.71,2.7,2.49-.85-.46-1.7-.92-2.58-1.42-1.27-.7-2.59-1.49-3.88-2.24l-2-1.26c-.68-.42-1.28-.89-1.93-1.34-.94-.68-1.88-1.43-2.82-2.17.8-1.25,3.07-5,3.4-7.13s.15-5.18-1.52-6.9a4,4,0,0,0-6,0c-2.18,2.6-.57,8.5,1.05,11.07.05.08.45.59.92,1.18-.89-.75-1.78-1.5-2.66-2.29-2.49-2.25-5-4.62-7.44-7l-1.56-1.47c.68-1,3.17-5,3.52-7.32s.15-5.18-1.52-6.89a4,4,0,0,0-6,0c-2.18,2.6-.57,8.5,1,11.06.06.09.54.7,1.08,1.37-1.37-1.27-2.75-2.51-4.16-3.7a69.08,69.08,0,0,0-7.59-5.68c.25-.37,3.27-5,3.65-7.53.34-2.23.15-5.18-1.52-6.89a4,4,0,0,0-6,0c-2.18,2.6-.57,8.5,1.05,11.06.11.18,1.85,2.35,2.49,3.11l-.09-.07a52.45,52.45,0,0,0-8.33-4.14,70.75,70.75,0,0,0-7.9-2.62c-2.48-.69-4.79-1.17-6.84-1.58-1.11-.21-2.13-.38-3.08-.53l.05-.05c.05,0-3.41-2.28-3.64-2.4-2.71-1.35-8.75-2.35-11.11.07a4,4,0,0,0,.56,5.95c1.87,1.49,4.82,1.38,7,.82s6-3.52,7-4.27c1,.18,2,.38,3.2.63,2,.45,4.33,1,6.78,1.72.66.2,1.35.44,2,.66-1.22-.14-2.9-.29-3.06-.29-3,.06-8.85,1.94-9.83,5.19a4,4,0,0,0,3.24,5c2.35.45,4.91-1,6.6-2.51s3.8-6.05,4.23-7c1.5.5,3,1.06,4.58,1.73a52.17,52.17,0,0,1,8.14,4.27l.43.32c-.59-.17-3.9-.87-4.14-.89-3-.28-9,1-10.34,4.08a4,4,0,0,0,2.67,5.34c2.28.72,5-.45,6.83-1.77,2.12-1.51,5-6.5,5.08-6.69a69.7,69.7,0,0,1,7.22,5.66c1.69,1.5,3.35,3.09,5,4.7-.78-.2-3.86-.84-4.09-.86-3-.28-9,.95-10.34,4.07a4,4,0,0,0,2.67,5.34c2.29.72,5-.45,6.84-1.76,2.07-1.48,4.82-6.25,5.05-6.66l2.24,2.21c2.43,2.41,4.85,4.84,7.31,7.17.86.8,1.73,1.57,2.6,2.33-1.17-.26-3.31-.71-3.5-.72-3-.28-9,.95-10.34,4.07a4,4,0,0,0,2.67,5.35c2.28.71,5-.46,6.83-1.77s4.25-5.28,4.91-6.41c1.46,1.27,2.93,2.49,4.44,3.63.66.48,1.3,1,2,1.43l1.95,1.3c1.36.84,2.62,1.63,3.91,2.38l1.9,1.1c-1.15-.45-3-1.13-3.15-1.17-2.94-.74-9.05-.42-10.84,2.46a4,4,0,0,0,1.83,5.68c2.15,1.06,5,.31,7-.71,2.23-1.12,5.58-5.27,6-5.78,1.56.89,3.08,1.74,4.52,2.51,3.84,2.05,7.2,3.69,9.8,4.92,8.46,7.31,20.36,8.11,20.36,8.11s.63-14.25-7.76-23.64A29.45,29.45,0,0,0,374.91,379.18Zm-15.1,13.9c.26-.58,2.29-5.11,2.43-7.67.47-.08.94-.18,1.4-.29a33,33,0,0,0,5.25,12.55q-2.31-1.1-5-2.44C362.6,394.57,361.22,393.84,359.81,393.08Z" style="fill:#fff"></path><path d="M437.29,376.45s-14.27.44-23,9.51-8.62,23.34-8.62,23.34,14.26-.44,23-9.51S437.29,376.45,437.29,376.45Z" style="fill:#fff"></path></g><polygon points="400.03 385.64 414.04 373.04 413.44 372.38 400.02 384.44 399.95 367.93 400.02 367.98 411.87 350.65 411.13 350.15 399.94 366.5 399.77 326.78 398.88 326.79 398.99 353.75 390.07 346.03 389.48 346.71 399 354.94 399.08 374.22 385.56 362.25 384.96 362.93 399.08 375.42 399.16 392.97 389 385 388.44 385.71 399.17 394.12 399.21 405.42 400.11 405.41 400.03 385.64 400.03 385.64" style="fill:#fff"></polygon><polygon points="387.12 390.5 386.23 390.4 385.1 400.38 379.08 393.65 379.1 393.65 377.57 381.58 376.68 381.69 378.04 392.49 363.09 375.77 362.42 376.37 372.56 387.71 366.14 387.79 366.15 388.69 373.36 388.6 380.48 396.56 370.43 396.57 370.43 397.47 381.28 397.45 387.75 404.69 380.66 405.11 380.72 406.01 388.51 405.54 392.82 410.35 393.49 409.75 385.9 401.27 387.12 390.5" style="fill:#fff"></polygon><polygon points="420.98 394.06 432.9 391.64 432.72 390.76 422.06 392.92 437.61 376.76 436.96 376.14 426.41 387.11 425.85 380.7 424.96 380.78 425.58 387.96 418.18 395.65 417.42 385.63 416.52 385.7 417.35 396.52 410.62 403.51 409.67 396.48 408.77 396.6 409.82 404.33 405.34 408.99 405.99 409.61 413.88 401.41 424.71 401.83 424.75 400.93 414.72 400.55 420.97 394.05 420.98 394.06" style="fill:#fff"></polygon></g><g id="freepik--Character--inject-37"><path d="M182.92,394.73s-6.57,7.67-7.39,10.4,1.64,4.66,6.3,4.39,7.94-7.12,9.31-8.77,4.66-3.56,5.2-7.39S184.57,391.44,182.92,394.73Z" style="fill:#fff;stroke:#263238;stroke-linecap:round;stroke-linejoin:round"></path><path d="M196.34,393.36a1.39,1.39,0,0,0-.21-1c-1.21,3.33-3.7,6.51-5,7s-3.84,5.21-7.67,7.67c-2.62,1.68-6.12.31-8.09-.74.13,2.09,2.49,3.44,6.45,3.21,4.65-.28,7.94-7.12,9.31-8.77S195.8,397.19,196.34,393.36Z" style="fill:#263238;stroke:#263238;stroke-linecap:round;stroke-linejoin:round"></path><path d="M261.94,394.73s6.58,7.67,7.4,10.4-1.65,4.66-6.3,4.39-8-7.12-9.32-8.77-4.65-3.56-5.2-7.39S260.3,391.44,261.94,394.73Z" style="fill:#fff;stroke:#263238;stroke-linecap:round;stroke-linejoin:round"></path><path d="M248.52,393.36a1.34,1.34,0,0,1,.22-1c1.2,3.33,3.7,6.51,5,7s3.84,5.21,7.67,7.67c2.62,1.68,6.12.31,8.09-.74-.12,2.09-2.49,3.44-6.44,3.21-4.66-.28-8-7.12-9.32-8.77S249.07,397.19,248.52,393.36Z" style="fill:#263238;stroke:#263238;stroke-linecap:round;stroke-linejoin:round"></path><path d="M208.45,255.94s-3.34,22.38-3.62,23.2-10.13,50.67-12.05,60.8-4.65,20.27-4.93,26.3-2.19,21.36-2.19,21.36a14.57,14.57,0,0,0-1.92,4.11,16,16,0,0,1-.82,3,40.9,40.9,0,0,0,5.75,1.09c2.74.28,5.76-1.09,6.85-1.09s3.29-8.22,4.11-11.78,4.93-20.54,5.75-23.56,11.23-43.82,11.23-43.82l9.4-24.74,4.11-1.64,6.21,46.65L246.47,389l2.19,7.67a18.74,18.74,0,0,0,6,.83c2.47-.28,7.13-3,7.13-3s.54-3.56-.28-4.65-2.74-4.11-2.74-4.11-1.64-34.79-3-42.73-3-17.81-3-17.81-2.19-34.78-2.19-43.27-3.88-25.69-3.88-25.69S226.86,261,208.45,255.94Z" style="fill:#263238;stroke:#263238;stroke-linecap:round;stroke-linejoin:round"></path><path d="M223.73,260.24l.28,5.48s6,1.09,9.31-.82v-5.21Z" style="fill:#fff;stroke:#263238;stroke-linecap:round;stroke-linejoin:round"></path><line x1="227.88" y1="269.9" x2="227.54" y2="287.24" style="fill:none;stroke:#fff;stroke-linecap:round;stroke-linejoin:round;stroke-width:0.75px"></line><polyline points="228.22 278.06 230.26 276.36 230.6 268.88" style="fill:none;stroke:#fff;stroke-linecap:round;stroke-linejoin:round;stroke-width:0.75px"></polyline><path d="M211.9,262.42s1.7,5.44-.68,7.48a14.79,14.79,0,0,1-4.42,2.72" style="fill:none;stroke:#fff;stroke-linecap:round;stroke-linejoin:round;stroke-width:0.75px"></path><path d="M241.82,262.08s1.7,5.44,6.46,6.12" style="fill:none;stroke:#fff;stroke-linecap:round;stroke-linejoin:round;stroke-width:0.75px"></path><path d="M215,196.19s-16-3-18-3.5-20.5-16-20.5-16l-12.78-32.17-6.68,1.8s1.21,19.62,2,25.12,5,16.25,5.5,17.25,3,4,4,4.25,12.75,9,15.5,10.5,13.75,8,13.75,8,5.5,14,6.25,16.75,4.25,20.5,4.5,22.5-1,3.5,0,5.25,8.25,6.75,18.25,6.75,19-3.5,20-6.5-.5-12.25-.5-13,1-11.75,1-11.75,5.25,10.75,7.5,14.25,5.75,8.25,8.25,8.25,34.25-19.5,34.25-19.5l-1.5-6.25a60.72,60.72,0,0,1-14.5,4.5c-7,1-16.5,3.5-16.5,3.5s-9.25-20.25-10.25-24-2.5-10.5-3.75-11.75-18.25-3.75-20.5-3.75S215,196.19,215,196.19Z" style="fill:#fff"></path><g style="clip-path:url(#freepik--clip-path--inject-37)"><path d="M246.7,256.19c1-3-.5-12.25-.5-13,0-.51.46-5.74.76-9.05l-.14,1s-2.26,10.19-2.26,14.34.37,9.06-6.42,10.57-12.45-5.29-18.49-10.57-9.43-11.32-10.18-15.09,7.92,5.28,7.92,5.28-8.3-11.69-10.94-18.11-7.17-21.13-7.17-21.13l.38,11.32-5.28-7.54s-1.51-3.78-3-7.17-3.4,3.39-3.4,3.39-9.05-16.22-11.69-18.49,1.5,13.21,1.5,13.21a148,148,0,0,1-11.69-10.19,44.32,44.32,0,0,1-5.38-6.49c1.5,4.79,3.42,9.59,3.75,10.24.5,1,3,4,4,4.25s12.75,9,15.5,10.5,13.75,8,13.75,8,5.5,14,6.25,16.75,4.25,20.5,4.5,22.5-1,3.5,0,5.25,8.25,6.75,18.25,6.75S245.7,259.19,246.7,256.19Z" style="fill:#92E3A9"></path><path d="M264.18,248c-3-.75-12.45-14.71-12.45-16.22s1.13-8.68,1.13-8.68l-3.4,3.77.76-6.79-1.51,1.51-1.41,10.11c.74,1.5,5.33,10.82,7.4,14,2.25,3.5,5.75,8.25,8.25,8.25,1.57,0,14.75-7.73,24.29-13.46C278.26,243.94,266.05,248.42,264.18,248Z" style="fill:#92E3A9"></path><g style="opacity:0.5"><path d="M246.7,256.19c1-3-.5-12.25-.5-13,0-.51.46-5.74.76-9.05l-.14,1s-2.26,10.19-2.26,14.34.37,9.06-6.42,10.57-12.45-5.29-18.49-10.57-9.43-11.32-10.18-15.09,7.92,5.28,7.92,5.28-8.3-11.69-10.94-18.11-7.17-21.13-7.17-21.13l.38,11.32-5.28-7.54s-1.51-3.78-3-7.17-3.4,3.39-3.4,3.39-9.05-16.22-11.69-18.49,1.5,13.21,1.5,13.21a148,148,0,0,1-11.69-10.19,44.32,44.32,0,0,1-5.38-6.49c1.5,4.79,3.42,9.59,3.75,10.24.5,1,3,4,4,4.25s12.75,9,15.5,10.5,13.75,8,13.75,8,5.5,14,6.25,16.75,4.25,20.5,4.5,22.5-1,3.5,0,5.25,8.25,6.75,18.25,6.75S245.7,259.19,246.7,256.19Z" style="fill:#fff"></path><path d="M264.18,248c-3-.75-12.45-14.71-12.45-16.22s1.13-8.68,1.13-8.68l-3.4,3.77.76-6.79-1.51,1.51-1.41,10.11c.74,1.5,5.33,10.82,7.4,14,2.25,3.5,5.75,8.25,8.25,8.25,1.57,0,14.75-7.73,24.29-13.46C278.26,243.94,266.05,248.42,264.18,248Z" style="fill:#fff"></path></g></g><path d="M215,196.19s-16-3-18-3.5-20.5-16-20.5-16l-12.78-32.17-6.68,1.8s1.21,19.62,2,25.12,5,16.25,5.5,17.25,3,4,4,4.25,12.75,9,15.5,10.5,13.75,8,13.75,8,5.5,14,6.25,16.75,4.25,20.5,4.5,22.5-1,3.5,0,5.25,8.25,6.75,18.25,6.75,19-3.5,20-6.5-.5-12.25-.5-13,1-11.75,1-11.75,5.25,10.75,7.5,14.25,5.75,8.25,8.25,8.25,34.25-19.5,34.25-19.5l-1.5-6.25a60.72,60.72,0,0,1-14.5,4.5c-7,1-16.5,3.5-16.5,3.5s-9.25-20.25-10.25-24-2.5-10.5-3.75-11.75-18.25-3.75-20.5-3.75S215,196.19,215,196.19Z" style="fill:none;stroke:#263238;stroke-linecap:round;stroke-linejoin:round"></path><line x1="291.47" y1="230.37" x2="293.85" y2="236.42" style="fill:none;stroke:#263238;stroke-linecap:round;stroke-linejoin:round"></line><line x1="157.28" y1="150.86" x2="165.12" y2="148.69" style="fill:none;stroke:#263238;stroke-linecap:round;stroke-linejoin:round"></line><path d="M212,237.69s13.5,15.5,27.5,19" style="fill:none;stroke:#263238;stroke-linecap:round;stroke-linejoin:round"></path><line x1="249.76" y1="214.61" x2="250.2" y2="211.69" style="fill:none;stroke:#263238;stroke-linecap:round;stroke-linejoin:round"></line><line x1="247.2" y1="231.44" x2="249.33" y2="217.43" style="fill:none;stroke:#263238;stroke-linecap:round;stroke-linejoin:round"></line><line x1="247.45" y1="229.19" x2="252.45" y2="218.19" style="fill:none;stroke:#263238;stroke-linecap:round;stroke-linejoin:round"></line><line x1="194.15" y1="194.57" x2="193.7" y2="192.44" style="fill:none;stroke:#263238;stroke-linecap:round;stroke-linejoin:round"></line><line x1="197.7" y1="211.44" x2="194.76" y2="197.48" style="fill:none;stroke:#263238;stroke-linecap:round;stroke-linejoin:round"></line><line x1="188.08" y1="190.39" x2="186.7" y2="187.44" style="fill:none;stroke:#263238;stroke-linecap:round;stroke-linejoin:round"></line><line x1="197.2" y1="209.94" x2="189.21" y2="192.81" style="fill:none;stroke:#263238;stroke-linecap:round;stroke-linejoin:round"></line><path d="M176,177.94s2.5,10,5.75,15" style="fill:none;stroke:#263238;stroke-linecap:round;stroke-linejoin:round"></path><polyline points="268.2 242.94 264.7 236.19 271.45 241.69" style="fill:none;stroke:#263238;stroke-linecap:round;stroke-linejoin:round"></polyline><polygon points="220.2 206.19 224.95 213.69 224.2 255.94 229.2 263.44 233.45 252.69 226.45 212.94 229.45 206.94 225.45 200.19 220.2 206.19" style="fill:#263238;stroke:#263238;stroke-linecap:round;stroke-linejoin:round"></polygon><path d="M218.82,191.8s-3.17-.17-4.16,1.16a10.05,10.05,0,0,0-1.34,3.83s1.5,5.32,1.84,7.32,1.49,7,1.49,7l8.66-6.16,9.82,5.66s-1.83-10.82-2.5-14.31-2.33-4.33-5.16-4.66A60.92,60.92,0,0,0,218.82,191.8Z" style="fill:#fff;stroke:#263238;stroke-linecap:round;stroke-linejoin:round"></path><path d="M215.32,184.64s1.83,8.82,2.5,10.48,6.32,9.82,7.49,9.82,4.83-9,5-10.48.17-5,.17-5-5.66,1.5-8.32-.33-5-6.32-6-6.32S215.32,184.64,215.32,184.64Z" style="fill:#fff"></path><g style="clip-path:url(#freepik--clip-path-2--inject-37)"><path d="M222.15,189.13c-2.67-1.83-5-6.32-6-6.32s-.83,1.83-.83,1.83,1,4.68,1.76,7.87a13,13,0,0,0,6.73,3.38,10.48,10.48,0,0,0,6.52-1.67c.14-1.6.14-4.76.14-4.76S224.81,191,222.15,189.13Z" style="fill:#92E3A9"></path><path d="M222.15,189.13c-2.67-1.83-5-6.32-6-6.32s-.83,1.83-.83,1.83,1,4.68,1.76,7.87a13,13,0,0,0,6.73,3.38,10.48,10.48,0,0,0,6.52-1.67c.14-1.6.14-4.76.14-4.76S224.81,191,222.15,189.13Z" style="fill:#fff;opacity:0.5"></path></g><path d="M215.32,184.64s1.83,8.82,2.5,10.48,6.32,9.82,7.49,9.82,4.83-9,5-10.48.17-5,.17-5-5.66,1.5-8.32-.33-5-6.32-6-6.32S215.32,184.64,215.32,184.64Z" style="fill:none;stroke:#263238;stroke-linecap:round;stroke-linejoin:round"></path><path d="M235.13,164.83s.5,8.16,1,11.82.66,8-1.17,10.82-3.66,4.66-7.49,5.16-8.65-1.83-10.15-4.16-2.83-4.66-2.83-4.66a7.22,7.22,0,0,1-3.16-.84c-1.5-.83-2.83-4.66-2.33-6.16s3-1.66,3-1.66-1.16-5.16-1.83-8.66a7.36,7.36,0,0,1,5.33-8.48c4.16-1.34,10.32-1.17,13.48.5S234.3,162,235.13,164.83Z" style="fill:#fff"></path><g style="clip-path:url(#freepik--clip-path-3--inject-37)"><path d="M221.92,165.32c2.33,1.67,6.44,6.57,13.62,5.34-.24-3-.41-5.83-.41-5.83-.83-2.83-3-4.66-6.16-6.33s-9.32-1.83-13.48-.49a7.69,7.69,0,0,0-4.74,3.93l2.74,2.22S219.28,163.44,221.92,165.32Z" style="fill:#92E3A9"></path><path d="M221.92,165.32c2.33,1.67,6.44,6.57,13.62,5.34-.24-3-.41-5.83-.41-5.83-.83-2.83-3-4.66-6.16-6.33s-9.32-1.83-13.48-.49a7.69,7.69,0,0,0-4.74,3.93l2.74,2.22S219.28,163.44,221.92,165.32Z" style="fill:#fff;opacity:0.5"></path></g><path d="M235.13,164.83s.5,8.16,1,11.82.66,8-1.17,10.82-3.66,4.66-7.49,5.16-8.65-1.83-10.15-4.16-2.83-4.66-2.83-4.66a7.22,7.22,0,0,1-3.16-.84c-1.5-.83-2.83-4.66-2.33-6.16s3-1.66,3-1.66-1.16-5.16-1.83-8.66a7.36,7.36,0,0,1,5.33-8.48c4.16-1.34,10.32-1.17,13.48.5S234.3,162,235.13,164.83Z" style="fill:none;stroke:#263238;stroke-linecap:round;stroke-linejoin:round"></path><path d="M232.8,168.66a4.26,4.26,0,0,0-3.33,1c-1.5,1.33.67,7.65.67,8.65s-3.17,1.83-3.17,1.83" style="fill:none;stroke:#263238;stroke-linecap:round;stroke-linejoin:round"></path><path d="M230.14,184.64s-4.46,1-6.22-1.66" style="fill:none;stroke:#263238;stroke-linecap:round;stroke-linejoin:round"></path><path d="M224,170.66a3.69,3.69,0,0,0-5.33,1.16" style="fill:none;stroke:#263238;stroke-linecap:round;stroke-linejoin:round"></path><path d="M223.55,175.37c.1.72-.23,1.37-.73,1.43s-1-.47-1.08-1.2.23-1.37.73-1.44S223.46,174.64,223.55,175.37Z" style="fill:#263238"></path><path d="M232.71,174.37c.09.73-.24,1.37-.74,1.43s-1-.47-1.08-1.2.24-1.37.74-1.44S232.61,173.64,232.71,174.37Z" style="fill:#263238"></path><line x1="219.98" y1="177.48" x2="222.48" y2="177.31" style="fill:none;stroke:#263238;stroke-linecap:round;stroke-linejoin:round;stroke-width:0.5px"></line><line x1="234.63" y1="175.48" x2="231.97" y2="176.32" style="fill:none;stroke:#263238;stroke-linecap:round;stroke-linejoin:round;stroke-width:0.5px"></line><path d="M211,173.15l2.33,7.16a1.38,1.38,0,0,0,1.5-.83c.34-1-1.83-5.16-1.5-5.66s2.67-1.33,2.33-3.16-2.16-4.83-2.16-6.5,3.33-3,5.16-3,4.49,2,6.66,3.83,1.83-1.34,1.83-1.34,6.49,3.33,10.15,2.34-.16-7-.16-7,4.32-3.16,2.49-6.49-11.48-5-19.3-3.33S209.66,153.68,209,155a9.24,9.24,0,0,0-.84,2.66,10.4,10.4,0,0,0-4.66,5.83c-1,3.83,3,7,4.66,7.49A6.2,6.2,0,0,1,211,173.15Z" style="fill:#263238;stroke:#263238;stroke-linecap:round;stroke-linejoin:round"></path><path d="M230.94,156.16c-3.69-1.49-8.77-2.93-12.3-1.59-6.17,2.36-4.7,5.59-4.7,5.59s8.47-4.16,13.2,3.5" style="fill:none;stroke:#fff;stroke-linecap:round;stroke-linejoin:round;stroke-width:0.75px"></path><path d="M235.69,158.39s-.81-.45-2.11-1.07" style="fill:none;stroke:#fff;stroke-linecap:round;stroke-linejoin:round;stroke-width:0.75px"></path><path d="M295.7,228.19s1.25-5,2.25-6.25,3.25-2,4-3.5,1.75-3.5,2.5-2.5a2.71,2.71,0,0,1,.46,2.95,8.83,8.83,0,0,1-1.79,2.72,4.23,4.23,0,0,0-1,1.7,1.21,1.21,0,0,1-.17.6l14.89-5.79a1.51,1.51,0,0,1,.85,1.11c.17.85-.93,1.36-1.44,1.53s-6.72,3-6.72,3l.68,1.1,9.6-1.06a1.09,1.09,0,0,1,.3,2.15l-9.48,1.64-.25,1.1,10.42,1a1,1,0,0,1,.84,1.07.93.93,0,0,1-.94.8l-10.41-.15c1.73,1,2.41,1.34,4.17,2.29,3,1.62,3.83,2.57,1.61,2.47a9.52,9.52,0,0,1-2.21-.72L309.25,234s-2,.17-3.74.42-4,.77-4.94.77a20.1,20.1,0,0,1-3.37-.7Z" style="fill:#fff;stroke:#263238;stroke-linecap:round;stroke-linejoin:round"></path><path d="M301.93,223.91v3.49c0,1-.85,1.87-2.46,2.38" style="fill:none;stroke:#263238;stroke-linecap:round;stroke-linejoin:round"></path><path d="M163.15,144.5s3.71-3.57,4.3-5.06.12-3.81,1-5.21,2.17-3.26.92-3.41a2.69,2.69,0,0,0-2.78,1.06,8.92,8.92,0,0,0-1.47,2.91,4.11,4.11,0,0,1-1,1.73,1.21,1.21,0,0,0-.43.45l-2.4-15.8A1.49,1.49,0,0,0,160,121c-.83.27-.72,1.49-.61,2s.77,7.32.77,7.32l-1.3,0L155,121.42a1.08,1.08,0,0,0-2,.81l3.3,9-.83.78-6.07-8.54a.94.94,0,0,0-1.57,1l5.32,9c-1.73-1-2.36-1.42-4.06-2.47-2.89-1.78-4.14-2-2.94-.17a9.51,9.51,0,0,0,1.72,1.56l3.58,3.23s.87,1.86,1.5,3.46,1.32,3.85,1.79,4.66a20.49,20.49,0,0,0,2.29,2.58Z" style="fill:#fff;stroke:#263238;stroke-linecap:round;stroke-linejoin:round"></path><path d="M163.76,137l-3,1.73c-.89.51-1.2,1.68-.84,3.33" style="fill:none;stroke:#263238;stroke-linecap:round;stroke-linejoin:round"></path></g><g id="freepik--Windows--inject-37"><rect x="268.5" y="176.39" width="176.49" height="111.76" style="fill:#fff;stroke:#263238;stroke-miterlimit:10;opacity:0.5"></rect><path d="M323.78,163.4l-3.41-9.79h-55.3V296.28H448.42V163.4ZM445,288.14H268.5V176.39H445Z" style="fill:#92E3A9;stroke:#263238;stroke-miterlimit:10"></path><rect x="323.76" y="167.1" width="87.68" height="5.37" style="fill:#fff;stroke:#263238;stroke-miterlimit:10"></rect><polyline points="272.74 166.24 270.21 168.68 272.84 171.49" style="fill:none;stroke:#263238;stroke-linecap:round;stroke-linejoin:round"></polyline><line x1="270.21" y1="168.68" x2="275.83" y2="168.68" style="fill:none;stroke:#263238;stroke-linecap:round;stroke-linejoin:round"></line><polyline points="287.08 166.24 289.61 168.68 286.99 171.49" style="fill:none;stroke:#263238;stroke-linecap:round;stroke-linejoin:round"></polyline><line x1="289.61" y1="168.68" x2="283.99" y2="168.68" style="fill:none;stroke:#263238;stroke-linecap:round;stroke-linejoin:round"></line><path d="M301.69,168.35a2.78,2.78,0,0,0-2.58-2,2.53,2.53,0,0,0,0,5.06,2.48,2.48,0,0,0,1.6-.57" style="fill:none;stroke:#263238;stroke-linecap:round;stroke-linejoin:round"></path><polyline points="299.98 168.63 301.95 168.63 301.95 166.29" style="fill:none;stroke:#263238;stroke-linecap:round;stroke-linejoin:round"></polyline><polygon points="315.09 167.8 312.76 165.91 310.53 167.8 310.53 171.91 315.09 171.91 315.09 167.8" style="fill:none;stroke:#263238;stroke-linecap:round;stroke-linejoin:round"></polygon><rect x="311.87" y="168.91" width="1.78" height="2.85" style="fill:#263238"></rect><line x1="310.53" y1="167.8" x2="309.2" y2="169.03" style="fill:none;stroke:#263238;stroke-linecap:round;stroke-linejoin:round"></line><line x1="315.09" y1="167.8" x2="316.34" y2="168.92" style="fill:none;stroke:#263238;stroke-linecap:round;stroke-linejoin:round"></line><line x1="314.25" y1="158.68" x2="317.8" y2="162.34" style="fill:none;stroke:#263238;stroke-linecap:round;stroke-linejoin:round"></line><line x1="317.86" y1="158.73" x2="314.19" y2="162.28" style="fill:none;stroke:#263238;stroke-linecap:round;stroke-linejoin:round"></line><line x1="435.69" y1="168.08" x2="442.72" y2="168.08" style="fill:none;stroke:#263238;stroke-linecap:round;stroke-linejoin:round"></line><line x1="435.69" y1="169.67" x2="442.72" y2="169.67" style="fill:none;stroke:#263238;stroke-linecap:round;stroke-linejoin:round"></line><line x1="435.69" y1="171.25" x2="442.72" y2="171.25" style="fill:none;stroke:#263238;stroke-linecap:round;stroke-linejoin:round"></line><line x1="435.69" y1="172.84" x2="442.72" y2="172.84" style="fill:none;stroke:#263238;stroke-linecap:round;stroke-linejoin:round"></line><rect x="76.61" y="92.37" width="117.63" height="74.48" style="fill:#fff;stroke:#263238;stroke-miterlimit:10;opacity:0.5"></rect><path d="M113.46,83.72l-2.28-6.53H74.32v95.09h122.2V83.72Zm80.78,83.14H76.61V92.37H194.24Z" style="fill:#92E3A9;stroke:#263238;stroke-miterlimit:10"></path><rect x="113.44" y="86.18" width="58.44" height="3.58" style="fill:#fff;stroke:#263238;stroke-miterlimit:10"></rect><polyline points="79.44 85.61 77.75 87.23 79.5 89.11" style="fill:none;stroke:#263238;stroke-linecap:round;stroke-linejoin:round"></polyline><line x1="77.75" y1="87.23" x2="81.5" y2="87.23" style="fill:none;stroke:#263238;stroke-linecap:round;stroke-linejoin:round"></line><polyline points="88.99 85.61 90.68 87.23 88.93 89.11" style="fill:none;stroke:#263238;stroke-linecap:round;stroke-linejoin:round"></polyline><line x1="90.68" y1="87.23" x2="86.93" y2="87.23" style="fill:none;stroke:#263238;stroke-linecap:round;stroke-linejoin:round"></line><path d="M98.73,87A1.84,1.84,0,0,0,97,85.67a1.69,1.69,0,1,0,1.07,3" style="fill:none;stroke:#263238;stroke-linecap:round;stroke-linejoin:round"></path><polyline points="97.59 87.2 98.91 87.2 98.91 85.65" style="fill:none;stroke:#263238;stroke-linecap:round;stroke-linejoin:round"></polyline><polygon points="107.66 86.65 106.11 85.39 104.63 86.65 104.63 89.39 107.66 89.39 107.66 86.65" style="fill:none;stroke:#263238;stroke-linecap:round;stroke-linejoin:round"></polygon><rect x="105.51" y="87.39" width="1.18" height="1.9" style="fill:#263238"></rect><line x1="104.63" y1="86.65" x2="103.74" y2="87.47" style="fill:none;stroke:#263238;stroke-linecap:round;stroke-linejoin:round"></line><line x1="107.66" y1="86.65" x2="108.5" y2="87.4" style="fill:none;stroke:#263238;stroke-linecap:round;stroke-linejoin:round"></line><line x1="107.1" y1="80.57" x2="109.47" y2="83.01" style="fill:none;stroke:#263238;stroke-linecap:round;stroke-linejoin:round"></line><line x1="109.51" y1="80.61" x2="107.06" y2="82.97" style="fill:none;stroke:#263238;stroke-linecap:round;stroke-linejoin:round"></line><line x1="188.04" y1="86.84" x2="192.73" y2="86.84" style="fill:none;stroke:#263238;stroke-linecap:round;stroke-linejoin:round"></line><line x1="188.04" y1="87.89" x2="192.73" y2="87.89" style="fill:none;stroke:#263238;stroke-linecap:round;stroke-linejoin:round"></line><line x1="188.04" y1="88.95" x2="192.73" y2="88.95" style="fill:none;stroke:#263238;stroke-linecap:round;stroke-linejoin:round"></line><line x1="188.04" y1="90.01" x2="192.73" y2="90.01" style="fill:none;stroke:#263238;stroke-linecap:round;stroke-linejoin:round"></line><rect x="74.32" y="239.69" width="113.54" height="68.81" style="fill:#263238;stroke:#263238;stroke-miterlimit:10"></rect><rect x="74.32" y="298.33" width="113.54" height="10.17" style="fill:#92E3A9;stroke:#263238;stroke-miterlimit:10"></rect><circle cx="129.55" cy="271.78" r="17.96" style="fill:#fff;stroke:#263238;stroke-miterlimit:10"></circle><polygon points="142.59 271.78 122.85 260.39 122.85 283.18 142.59 271.78" style="fill:#263238;stroke:#263238;stroke-miterlimit:10"></polygon><rect x="79.97" y="301.55" width="102.26" height="1.84" style="fill:#263238"></rect><path d="M83.52,302.44a1.64,1.64,0,1,0-1.64,1.64A1.65,1.65,0,0,0,83.52,302.44Z" style="fill:#92E3A9;stroke:#263238;stroke-miterlimit:10"></path></g></svg>