<svg xmlns="http://www.w3.org/2000/svg" xmlns:xlink="http://www.w3.org/1999/xlink" viewBox="0 0 1235.46 954.79"><defs><style>.cls-1{mask:url(#mask);}.cls-10,.cls-13,.cls-17,.cls-18,.cls-2,.cls-27,.cls-29,.cls-30,.cls-31,.cls-34,.cls-36,.cls-37,.cls-4,.cls-6,.cls-70,.cls-8{mix-blend-mode:multiply;}.cls-2{fill:url(#linear-gradient);}.cls-3{mask:url(#mask-2);}.cls-4{fill:url(#linear-gradient-2);}.cls-5{mask:url(#mask-3);}.cls-6{fill:url(#linear-gradient-3);}.cls-7{mask:url(#mask-4);}.cls-8{fill:url(#linear-gradient-4);}.cls-9{mask:url(#mask-5);}.cls-10{fill:url(#linear-gradient-5);}.cls-11{isolation:isolate;}.cls-12{fill:url(#linear-gradient-6);}.cls-13,.cls-29,.cls-30,.cls-36{opacity:0.5;}.cls-13{fill:url(#linear-gradient-7);}.cls-14{fill:url(#linear-gradient-8);}.cls-15{fill:#fdf9d5;}.cls-16{fill:url(#linear-gradient-9);}.cls-17,.cls-18{opacity:0.15;}.cls-17{fill:url(#linear-gradient-10);}.cls-18{fill:url(#linear-gradient-11);}.cls-19{fill:url(#linear-gradient-12);}.cls-20{fill:url(#linear-gradient-13);}.cls-21{fill:url(#linear-gradient-14);}.cls-22{fill:url(#linear-gradient-15);}.cls-23{fill:url(#linear-gradient-16);}.cls-24{fill:url(#linear-gradient-17);}.cls-25{fill:url(#linear-gradient-18);}.cls-26{fill:url(#linear-gradient-19);}.cls-27,.cls-34{opacity:0.6;}.cls-27{fill:url(#linear-gradient-20);}.cls-28{fill:url(#linear-gradient-21);}.cls-29{fill:url(#linear-gradient-22);}.cls-30{fill:url(#linear-gradient-23);}.cls-31,.cls-37{opacity:0.2;}.cls-31{fill:url(#linear-gradient-24);}.cls-32{fill:url(#linear-gradient-25);}.cls-33{fill:url(#linear-gradient-26);}.cls-34{fill:url(#linear-gradient-27);}.cls-35{fill:url(#linear-gradient-28);}.cls-36{fill:url(#linear-gradient-29);}.cls-37{fill:url(#linear-gradient-30);}.cls-38{fill:#aad6e3;}.cls-39{fill:#8ce083;}.cls-40{font-size:17.93px;}.cls-40,.cls-43,.cls-47,.cls-48{fill:#333;}.cls-40,.cls-43{font-family:ArialMT, Arial;}.cls-41{letter-spacing:-0.04em;}.cls-42{fill:#ff8da5;}.cls-43,.cls-47{font-size:24.05px;}.cls-44{fill:#f7e365;}.cls-45{letter-spacing:-0.02em;}.cls-46{fill:#f9aa6a;}.cls-47{font-family:Arial-BoldMT, Arial;font-weight:700;}.cls-49{mask:url(#mask-6);}.cls-50,.cls-52,.cls-54,.cls-56{mix-blend-mode:overlay;}.cls-50{fill:url(#linear-gradient-31);}.cls-51{mask:url(#mask-7);}.cls-52{fill:url(#linear-gradient-32);}.cls-53{mask:url(#mask-8);}.cls-54{fill:url(#linear-gradient-33);}.cls-55{mask:url(#mask-9);}.cls-56{fill:url(#linear-gradient-34);}.cls-57{opacity:0.19;fill:url(#linear-gradient-35);}.cls-58{fill:#d5d1e8;opacity:0.23;}.cls-59{fill:#fff;}.cls-60{fill:#959392;}.cls-61{fill:#0c30a1;}.cls-62{fill:#016938;}.cls-63{fill:#3da51b;}.cls-64{fill:#2a6b12;}.cls-65{fill:#ffbc00;}.cls-66{fill:#ff9e87;}.cls-67{fill:#f0755c;opacity:0.8;}.cls-68{fill:#fa826a;}.cls-69{fill:#28282b;}.cls-70{fill:#cc1f1f;opacity:0.45;}.cls-71{fill:#c61a1a;}.cls-72{fill:#f88;}.cls-73{opacity:0.3;mix-blend-mode:screen;}.cls-74{opacity:0.29;}.cls-75{opacity:0.42;}.cls-76{mask:url(#mask-10);}.cls-77{mix-blend-mode:color-dodge;fill:url(#linear-gradient-36);}.cls-78{fill:#f99900;}.cls-79{fill:#c5c6c6;}.cls-80{fill:#fffffc;opacity:0.7;}.cls-81{fill:#5b4739;}.cls-82{fill:#725a47;}.cls-83{filter:url(#luminosity-noclip-10);}.cls-84{filter:url(#luminosity-noclip-9);}.cls-85{filter:url(#luminosity-noclip-8);}.cls-86{filter:url(#luminosity-noclip-7);}.cls-87{filter:url(#luminosity-noclip-6);}.cls-88{filter:url(#luminosity-noclip-5);}.cls-89{filter:url(#luminosity-noclip-4);}.cls-90{filter:url(#luminosity-noclip-3);}.cls-91{filter:url(#luminosity-noclip-2);}.cls-92{filter:url(#luminosity-noclip);}</style><filter id="luminosity-noclip" x="614.67" y="-8817" width="450.67" height="32766" filterUnits="userSpaceOnUse" color-interpolation-filters="sRGB"><feFlood flood-color="#fff" result="bg"/><feBlend in="SourceGraphic" in2="bg"/></filter><mask id="mask" x="614.67" y="-8817" width="450.67" height="32766" maskUnits="userSpaceOnUse"><g class="cls-92"/></mask><linearGradient id="linear-gradient" x1="-79.69" y1="542.03" x2="-459.87" y2="1240.5" gradientTransform="translate(1114.48)" gradientUnits="userSpaceOnUse"><stop offset="0" stop-color="#fff"/><stop offset="0.99"/></linearGradient><filter id="luminosity-noclip-2" x="331.76" y="-8817" width="696.46" height="32766" filterUnits="userSpaceOnUse" color-interpolation-filters="sRGB"><feFlood flood-color="#fff" result="bg"/><feBlend in="SourceGraphic" in2="bg"/></filter><mask id="mask-2" x="331.76" y="-8817" width="696.46" height="32766" maskUnits="userSpaceOnUse"><g class="cls-91"/></mask><linearGradient id="linear-gradient-2" x1="10.18" y1="443.61" x2="-940.27" y2="1471.43" xlink:href="#linear-gradient"/><filter id="luminosity-noclip-3" x="869.51" y="-8817" width="228.08" height="32766" filterUnits="userSpaceOnUse" color-interpolation-filters="sRGB"><feFlood flood-color="#fff" result="bg"/><feBlend in="SourceGraphic" in2="bg"/></filter><mask id="mask-3" x="869.51" y="-8817" width="228.08" height="32766" maskUnits="userSpaceOnUse"><g class="cls-90"/></mask><linearGradient id="linear-gradient-3" x1="-42" y1="558.33" x2="-179.04" y2="1130.81" xlink:href="#linear-gradient"/><filter id="luminosity-noclip-4" x="62.07" y="-8817" width="917.71" height="32766" filterUnits="userSpaceOnUse" color-interpolation-filters="sRGB"><feFlood flood-color="#fff" result="bg"/><feBlend in="SourceGraphic" in2="bg"/></filter><mask id="mask-4" x="62.07" y="-8817" width="917.71" height="32766" maskUnits="userSpaceOnUse"><g class="cls-89"/></mask><linearGradient id="linear-gradient-4" x1="-161.69" y1="410.08" x2="-966.26" y2="1070.97" xlink:href="#linear-gradient"/><filter id="luminosity-noclip-5" x="276.02" y="-8817" width="520.16" height="32766" filterUnits="userSpaceOnUse" color-interpolation-filters="sRGB"><feFlood flood-color="#fff" result="bg"/><feBlend in="SourceGraphic" in2="bg"/></filter><mask id="mask-5" x="276.02" y="-8817" width="520.16" height="32766" maskUnits="userSpaceOnUse"><g class="cls-88"/></mask><linearGradient id="linear-gradient-5" x1="536.1" y1="706.56" x2="536.1" y2="1035.33" gradientUnits="userSpaceOnUse"><stop offset="0.12"/><stop offset="0.64" stop-color="#fff"/></linearGradient><linearGradient id="linear-gradient-6" x1="-565.22" y1="394.53" x2="-412.71" y2="1073.11" gradientTransform="translate(1114.48)" gradientUnits="userSpaceOnUse"><stop offset="0" stop-color="#91cd9c"/><stop offset="1" stop-color="#6279ba"/></linearGradient><linearGradient id="linear-gradient-7" x1="-189.93" y1="1363.36" x2="-1125" y2="759.87" gradientTransform="translate(1114.48)" gradientUnits="userSpaceOnUse"><stop offset="0" stop-color="#76c59a"/><stop offset="1" stop-color="#6279ba"/></linearGradient><linearGradient id="linear-gradient-8" x1="-142.97" y1="282.46" x2="-211.47" y2="872.4" gradientTransform="translate(1114.48)" gradientUnits="userSpaceOnUse"><stop offset="0" stop-color="#ffda5d"/><stop offset="0.99" stop-color="#e31a5b"/></linearGradient><linearGradient id="linear-gradient-9" x1="-411.51" y1="776.27" x2="125.59" y2="128.64" gradientTransform="translate(1114.48)" gradientUnits="userSpaceOnUse"><stop offset="0.01" stop-color="#fff0a1"/><stop offset="1" stop-color="#f79720"/></linearGradient><linearGradient id="linear-gradient-10" x1="-71.98" y1="724.18" x2="-70.42" y2="747.62" gradientTransform="translate(1114.48)" gradientUnits="userSpaceOnUse"><stop offset="0" stop-color="#374b9a"/><stop offset="1" stop-color="#430739"/></linearGradient><linearGradient id="linear-gradient-11" x1="-267.23" y1="722.52" x2="-265.66" y2="745.96" xlink:href="#linear-gradient-10"/><linearGradient id="linear-gradient-12" x1="-137.26" y1="482.01" x2="73.26" y2="773.76" xlink:href="#linear-gradient-9"/><linearGradient id="linear-gradient-13" x1="-139.46" y1="466.32" x2="-257.14" y2="325.43" xlink:href="#linear-gradient-9"/><linearGradient id="linear-gradient-14" x1="-149.68" y1="518.05" x2="-426.52" y2="367.2" xlink:href="#linear-gradient-9"/><linearGradient id="linear-gradient-15" x1="-156.2" y1="536.14" x2="-119.73" y2="295.77" xlink:href="#linear-gradient-9"/><linearGradient id="linear-gradient-16" x1="-130.28" y1="446.61" x2="-103.84" y2="446.61" xlink:href="#linear-gradient-9"/><linearGradient id="linear-gradient-17" x1="-171.07" y1="451.66" x2="-512.51" y2="373.75" xlink:href="#linear-gradient-9"/><linearGradient id="linear-gradient-18" x1="-5.68" y1="546.86" x2="2.03" y2="791.21" xlink:href="#linear-gradient-10"/><linearGradient id="linear-gradient-19" x1="15.54" y1="568.72" x2="19.21" y2="623.74" gradientTransform="translate(1114.48)" gradientUnits="userSpaceOnUse"><stop offset="0" stop-color="#c970ab"/><stop offset="1" stop-color="#582870"/></linearGradient><linearGradient id="linear-gradient-20" x1="19.13" y1="566.82" x2="16.82" y2="601.53" xlink:href="#linear-gradient-19"/><linearGradient id="linear-gradient-21" x1="-56.71" y1="326.6" x2="-40.03" y2="576.75" xlink:href="#linear-gradient-10"/><linearGradient id="linear-gradient-22" x1="-11.6" y1="640.36" x2="-16.05" y2="781.31" xlink:href="#linear-gradient-10"/><linearGradient id="linear-gradient-23" x1="40.45" y1="710.94" x2="38.52" y2="772.16" xlink:href="#linear-gradient-10"/><linearGradient id="linear-gradient-24" x1="-54.89" y1="355.22" x2="-39.98" y2="578.92" xlink:href="#linear-gradient-10"/><linearGradient id="linear-gradient-25" x1="2056.77" y1="546.86" x2="2064.47" y2="791.21" gradientTransform="matrix(-1, 0, 0, 1, 2829.15, 0)" xlink:href="#linear-gradient-10"/><linearGradient id="linear-gradient-26" x1="2077.98" y1="568.72" x2="2081.65" y2="623.74" gradientTransform="matrix(-1, 0, 0, 1, 2829.15, 0)" xlink:href="#linear-gradient-19"/><linearGradient id="linear-gradient-27" x1="2081.57" y1="566.82" x2="2079.25" y2="601.53" gradientTransform="matrix(-1, 0, 0, 1, 2829.15, 0)" xlink:href="#linear-gradient-19"/><linearGradient id="linear-gradient-28" x1="2008.52" y1="326.42" x2="2025.19" y2="576.56" gradientTransform="matrix(-1, 0, 0, 1, 2829.15, 0)" xlink:href="#linear-gradient-10"/><linearGradient id="linear-gradient-29" x1="2050.84" y1="640.36" x2="2046.39" y2="781.31" gradientTransform="matrix(-1, 0, 0, 1, 2829.15, 0)" xlink:href="#linear-gradient-10"/><linearGradient id="linear-gradient-30" x1="2007.55" y1="355.22" x2="2022.46" y2="578.92" gradientTransform="matrix(-1, 0, 0, 1, 2829.15, 0)" xlink:href="#linear-gradient-10"/><filter id="luminosity-noclip-6" x="614.67" y="544.57" width="450.67" height="683.57" filterUnits="userSpaceOnUse" color-interpolation-filters="sRGB"><feFlood flood-color="#fff" result="bg"/><feBlend in="SourceGraphic" in2="bg"/></filter><mask id="mask-6" x="606.33" y="268.34" width="450.67" height="683.57" maskUnits="userSpaceOnUse"><g class="cls-87"><g transform="translate(-8.33 -276.24)"><g class="cls-1"><path class="cls-2" d="M1065.33,555.47,716.4,1212.72a684.31,684.31,0,0,1-101.73,15.43l437.64-683.58Q1058.51,550.3,1065.33,555.47Z"/></g></g></g></mask><linearGradient id="linear-gradient-31" x1="-79.69" y1="542.03" x2="-459.87" y2="1240.5" xlink:href="#linear-gradient-8"/><filter id="luminosity-noclip-7" x="331.76" y="481.69" width="696.46" height="744.37" filterUnits="userSpaceOnUse" color-interpolation-filters="sRGB"><feFlood flood-color="#fff" result="bg"/><feBlend in="SourceGraphic" in2="bg"/></filter><mask id="mask-7" x="323.43" y="205.45" width="696.46" height="744.37" maskUnits="userSpaceOnUse"><g class="cls-86"><g transform="translate(-8.33 -276.24)"><g class="cls-3"><path class="cls-4" d="M1028.22,517.71,497,1226.06c-59.33-6.57-114.6-15.21-165.21-28.65l674.55-715.72A235.51,235.51,0,0,0,1028.22,517.71Z"/></g></g></g></mask><linearGradient id="linear-gradient-32" x1="10.18" y1="443.61" x2="-940.27" y2="1471.43" xlink:href="#linear-gradient-8"/><filter id="luminosity-noclip-8" x="869.51" y="563.8" width="228.08" height="596.3" filterUnits="userSpaceOnUse" color-interpolation-filters="sRGB"><feFlood flood-color="#fff" result="bg"/><feBlend in="SourceGraphic" in2="bg"/></filter><mask id="mask-8" x="861.17" y="287.57" width="228.08" height="596.3" maskUnits="userSpaceOnUse"><g class="cls-85"><g transform="translate(-8.33 -276.24)"><g class="cls-5"><path class="cls-6" d="M1097.58,574.75l-91.66,507.78c-21.78,14.9-45.49,29.81-70.9,44.11-20.73,11.68-42.6,22.94-65.51,33.46l207.84-596.3A167.65,167.65,0,0,0,1097.58,574.75Z"/></g></g></g></mask><linearGradient id="linear-gradient-33" x1="-42" y1="558.33" x2="-179.04" y2="1130.81" xlink:href="#linear-gradient-8"/><filter id="luminosity-noclip-9" x="62.07" y="358.55" width="917.71" height="799.68" filterUnits="userSpaceOnUse" color-interpolation-filters="sRGB"><feFlood flood-color="#fff" result="bg"/><feBlend in="SourceGraphic" in2="bg"/></filter><mask id="mask-9" x="53.74" y="82.31" width="917.71" height="799.68" maskUnits="userSpaceOnUse"><g class="cls-84"><g transform="translate(-8.33 -276.24)"><g class="cls-7"><path class="cls-8" d="M979.78,403.5,755,629.4,228.76,1158.23q-13.37-6.81-26.07-14.52-13.22-8-25.69-17.07-4.49-3.24-8.86-6.64a352.67,352.67,0,0,1-51.56-48.92q-6.18-7.18-12.11-14.82-5-6.49-9.87-13.35-6.18-8.73-12-18-10.84-17.24-20.52-36.56L755,491.39,940.22,358.55h32.47c.31,3,.67,6.16,1.08,9.43C975.13,378.71,977.05,390.73,979.78,403.5Z"/></g></g></g></mask><linearGradient id="linear-gradient-34" x1="-161.69" y1="410.08" x2="-966.26" y2="1070.97" xlink:href="#linear-gradient-8"/><linearGradient id="linear-gradient-35" x1="209.16" y1="1149.82" x2="882.45" y2="1149.82" gradientTransform="matrix(1, 0, 0, 1, 0, 0)" xlink:href="#linear-gradient-10"/><filter id="luminosity-noclip-10" x="276.02" y="736.45" width="520.16" height="330.66" filterUnits="userSpaceOnUse" color-interpolation-filters="sRGB"><feFlood flood-color="#fff" result="bg"/><feBlend in="SourceGraphic" in2="bg"/></filter><mask id="mask-10" x="267.69" y="460.22" width="520.16" height="330.66" maskUnits="userSpaceOnUse"><g class="cls-83"><g transform="translate(-8.33 -276.24)"><g class="cls-9"><polygon class="cls-10" points="440.29 1067.12 649.39 1062.76 796.18 736.45 276.02 736.45 440.29 1067.12"/></g></g></g></mask><linearGradient id="linear-gradient-36" x1="536.1" y1="706.56" x2="536.1" y2="1035.33" gradientUnits="userSpaceOnUse"><stop offset="0.12" stop-color="#12215a"/><stop offset="0.64" stop-color="#12215a"/></linearGradient></defs><title>programmer concept</title><g class="cls-11"><g id="Layer_2" data-name="Layer 2"><g id="free_time" data-name="free time"><g id="background"><path class="cls-12" d="M1163.47,950.92c-19.48,24.67-73.4,78.66-152.45,132.71-21.78,14.91-45.48,29.82-70.89,44.12-20.74,11.67-42.6,22.93-65.52,33.45-47,21.61-98.32,40.1-153.11,52.62a682.81,682.81,0,0,1-101.73,15.43,637.11,637.11,0,0,1-117.19-2c-.16,0-.34,0-.51-.06-59.32-6.56-114.59-15.2-165.2-28.65q-20.64-5.46-40.22-12.06a483.87,483.87,0,0,1-65-27.12q-13.36-6.81-26.07-14.52-13.22-8-25.7-17.06c-3-2.17-5.94-4.38-8.85-6.64a352.27,352.27,0,0,1-51.57-48.93q-6.18-7.17-12.1-14.82-5-6.49-9.88-13.35-6.17-8.71-12-18Q74.65,1008.75,65,989.44q-8.17-16.29-15.51-34.1C.57,836.4-36.74,641.48,133.45,573c34.65-13.94,59.43-22,80.07-27.52,14.29-3.79,26.59-6.34,38.83-8.71,33.79-6.59,67-11.94,139.71-38.92,137.05-50.84,391.29-212,510.59-221,60.06-4.53,120.11,20.27,172.72,64.1q10.68,8.88,20.91,18.79,13.9,13.43,26.89,28.57,14.41,16.8,27.54,35.48c.57.82,1.15,1.64,1.71,2.47C1252.91,571.07,1289.43,791.46,1163.47,950.92Z" transform="translate(-8.33 -276.24)"/><path class="cls-13" d="M940.13,1127.75c-116.24,65.43-268.33,118.14-437.55,99.47-128.65-14.21-238.2-38.12-322.69-99.47Z" transform="translate(-8.33 -276.24)"/></g><g id="window_ornament" data-name="window ornament"><path class="cls-14" d="M1150.58,426.18V759.73H730.25V340.87h343.61q10.64,8.88,20.82,18.79,13.85,13.43,26.77,28.57,14.37,16.8,27.42,35.48C1149.45,424.53,1150,425.35,1150.58,426.18Z" transform="translate(-8.33 -276.24)"/><path class="cls-15" d="M1123.17,388.23V725.47H757.87V359.66h338.41Q1110.19,373.09,1123.17,388.23Z" transform="translate(-8.33 -276.24)"/><path class="cls-16" d="M891.79,610.2l-10.57-18.94,15.38,13.38s18-13.77,21.63-18c35-41.25,44.13-94.64,44.13-94.64s-70.53,16.71-106.21,50.44c-1,1-1.94,1.84-2.85,2.71a53.09,53.09,0,0,1-13.76-32.06c-.83-13.36-6.67-12.2-6.67-16.7,0-2.92-5.25-8.76-16.92-8.76-12.12,0-11.47,8-13.55,9.59-3.34,2.51-7.1,31.72-7.1,31.72l-1.66,5c-1.67,5-16.7,9.19-16.7,9.19l-7.51,9.18-24.21,57.59-2.51,44.24,28.39,74.29h76.79c10,0,9.19-19.19,9.19-25.87s23.37-7.52,23.37-23.38v-15a95,95,0,0,0,12-.58c36.73-7.46,64.54-32.63,64.54-32.63s-36.08-16.71-67.9-18.21A16.74,16.74,0,0,0,891.79,610.2Z" transform="translate(-8.33 -276.24)"/><path class="cls-17" d="M1074.32,737.26c0,6.71-13.85,12.15-30.94,12.15s-31-5.44-31-12.15,13.86-12.16,31-12.16S1074.32,730.54,1074.32,737.26Z" transform="translate(-8.33 -276.24)"/><path class="cls-18" d="M879.07,735.6c0,6.71-13.85,12.15-30.94,12.15s-31-5.44-31-12.15,13.86-12.16,31-12.16S879.07,728.88,879.07,735.6Z" transform="translate(-8.33 -276.24)"/><path class="cls-19" d="M1127.36,550.88c-1.12-6.52-2.53-12.89-4.19-19.09-15.55-58.37-52-101.26-52-101.26s-41.34,82.39-37.64,144.73c.31,5.07.61,9.44.9,13.25-7.73-6.53-13.21-10.44-13.21-10.44s-8.68,39,3.77,77c1.28,3.92,9.75,18.36,9.75,18.36l14.25-4.86-12.51,10a12,12,0,0,0,1.14,2.48c-22.17-7.85-51.5-6.49-51.5-6.49s12,25,35,40.31c2.38,1.59,13.17,5.82,13.17,5.82L1040,712l-2.53,10.8s1.94,1.47,8.15,2.7c1.43.28,3.09.55,5,.79,3.76.47,8.89,0,13.89-.79,6.71-1.07,13.19-2.72,15.71-3.39l1.24,1.13,2.32,2.26c1.29,1.26,2.5,2.46,3.61,3.6.16.85.32,1.69.46,2.49l.66-1.34c.9.93,1.73,1.81,2.5,2.65q.66-1.47,1.32-2.88c-.76-.81-1.56-1.66-2.42-2.53a2.1,2.1,0,0,0,.13-.26c-.11-.56-.2-1.14-.31-1.73-.19-1-.38-2.09-.58-3.18a1.41,1.41,0,0,0,.18.14c.49-1.89,1.06-3.91,1.66-6,.69.48,1.39,1,2.11,1.51-.44-1.35-.88-2.74-1.33-4.16,1.24-4.15,2.68-8.68,4.34-13.7.32-.89.63-1.79,1-2.71,4.31-1,15.18-3.61,26.09-7.29V594.86l-21.53-4.11,21.53-3.42,4.07-.64S1128.55,557.89,1127.36,550.88ZM1083.47,721.1q-1.53-1.46-3.26-2.87a49.76,49.76,0,0,0-3.35-6.23c3.36,1.6,6.21,2.87,8.06,3.68.15.71.28,1.43.43,2.14-.12.42-.24.86-.36,1.27l.71.55c.28,1.52.54,3,.79,4.38C1085.54,723.08,1084.53,722.11,1083.47,721.1ZM1094,691.44c-1,2.37-1.9,4.71-2.67,7-.1.31-.19.6-.3.9a100.25,100.25,0,0,0-.1-15.88c1-1.32,2.06-2.72,3.16-4.19A86.07,86.07,0,0,0,1094,691.44Z" transform="translate(-8.33 -276.24)"/><path class="cls-20" d="M903.76,366.29s14.36,6.63,19.89,25.42l5.53,18.78s-26.53-8.84-32-18.78-6.63-15.48-6.63-15.48Z" transform="translate(-8.33 -276.24)"/><path class="cls-21" d="M866.18,448.07s14.37,6.63,19.9,25.42l5.52,18.79s-26.52-8.84-32.05-18.79S852.92,458,852.92,458Z" transform="translate(-8.33 -276.24)"/><path class="cls-22" d="M999,420.46s-9.62,12.57-29.16,13.83l-19.54,1.27s14.44-23.93,25.36-27.14,16.55-3.08,16.55-3.08Z" transform="translate(-8.33 -276.24)"/><path class="cls-23" d="M1010.64,434.34s-1,12.79-13.69,22.29l-12.71,9.51s-.78-22.65,5.22-29.66,9.88-9.41,9.88-9.41Z" transform="translate(-8.33 -276.24)"/><path class="cls-24" d="M876.77,453.28s12.78-1,22.29-13.69l9.5-12.72s-22.65-.77-29.65,5.23S869.5,442,869.5,442Z" transform="translate(-8.33 -276.24)"/><path class="cls-25" d="M1156.48,764.89a59.66,59.66,0,0,1-6.53,1.31,83.44,83.44,0,0,1-12.26.9c-6.15,0-9.89-1.36-15.43-3.54a179.62,179.62,0,0,0-18.83-6.41c-19.89-5.52-27.63,10-27.63,10a2.17,2.17,0,0,1-.16-.42c-.7-2.15-3.21-13.3,4.58-49.31,8.84-40.89,37.57-109.42,37.57-109.42L1151,624.53l4,101.79Z" transform="translate(-8.33 -276.24)"/><path class="cls-26" d="M1151.32,569.18v57.91c-10.49-1.65-21.41-4.1-29.84-7.72-8.16-3.49-10.59-9.72-10.28-16.33.52-12.19,10.28-25.67,10.28-25.67Z" transform="translate(-8.33 -276.24)"/><path class="cls-27" d="M1151.32,569.18v32.19c-4.32-1-9.91-2.61-17.69-5.21-8.66-2.88-16.72,1.77-22.43,6.88.52-12.19,10.28-25.67,10.28-25.67Z" transform="translate(-8.33 -276.24)"/><path class="cls-28" d="M1152.06,592.11c-3.56-.72-8.6-2.93-12.4-3.68C1016.81,564,983.74,438.62,974.88,368.53c-1.35-10.7-2.15-20.1-2.6-27.66h103.09c27.5,22.9,53,51,75.34,82.84l.13,16.28Z" transform="translate(-8.33 -276.24)"/><path class="cls-29" d="M1121.48,738.73c.36,8.5.62,17.12.78,24.83a179.62,179.62,0,0,0-18.83-6.41c-19.89-5.52-27.63,10-27.63,10a2.17,2.17,0,0,1-.16-.42c11-27.33,29.78-73.55,35.89-86.52C1120.37,661.37,1120.37,713.31,1121.48,738.73Z" transform="translate(-8.33 -276.24)"/><path class="cls-30" d="M1156.48,764.89a59.66,59.66,0,0,1-6.53,1.31c1.28-11.22,3.07-26.15,5-39.88Z" transform="translate(-8.33 -276.24)"/><path class="cls-31" d="M1152.06,592.11c-3.56-.72-8.6-2.93-12.4-3.68C1016.81,564,983.74,438.62,974.88,368.53c13.1,38.76,36.25,94.58,68.13,123.75,51.94,47.52,58.57,39.78,51.94,24.31s-28.73-100.57-3.31-71.84,35.36,50.84,42,36.47c6.4-13.88-6.77-62.79,17.21-41.23Z" transform="translate(-8.33 -276.24)"/><path class="cls-32" d="M724.72,764.89a59,59,0,0,0,6.53,1.31,83.44,83.44,0,0,0,12.26.9c6.14,0,9.89-1.36,15.43-3.54a179.62,179.62,0,0,1,18.83-6.41c19.89-5.52,27.63,10,27.63,10a3.65,3.65,0,0,0,.16-.42c.7-2.15,3.21-13.3-4.58-49.31C792.14,676.48,763.4,608,763.4,608l-33.15,16.58-4,101.79Z" transform="translate(-8.33 -276.24)"/><path class="cls-33" d="M729.88,569.18v57.91c10.49-1.65,21.41-4.1,29.84-7.72,8.16-3.49,10.59-9.72,10.28-16.33-.52-12.19-10.28-25.67-10.28-25.67Z" transform="translate(-8.33 -276.24)"/><path class="cls-34" d="M729.88,569.18v32.19c4.32-1,9.9-2.61,17.68-5.21,8.67-2.88,16.72,1.77,22.44,6.88-.52-12.19-10.28-25.67-10.28-25.67Z" transform="translate(-8.33 -276.24)"/><path class="cls-35" d="M729.14,592.11c3.56-.72,8.6-2.93,12.4-3.68C864.38,564,897.46,438.62,906.32,368.53c1.35-10.7,2.14-20.1,2.6-27.66,0,0-147.73-1.11-178.43-1.11L730.36,440Z" transform="translate(-8.33 -276.24)"/><path class="cls-36" d="M759.72,738.73c-.36,8.5-.61,17.12-.78,24.83a179.62,179.62,0,0,1,18.83-6.41c19.89-5.52,27.63,10,27.63,10a3.65,3.65,0,0,0,.16-.42c-11-27.33-29.78-73.55-35.89-86.52C760.83,661.37,760.83,713.31,759.72,738.73Z" transform="translate(-8.33 -276.24)"/><path class="cls-37" d="M729.14,592.11c3.56-.72,8.6-2.93,12.4-3.68C864.38,564,897.46,438.62,906.32,368.53c-13.11,38.76-36.25,94.58-68.13,123.75-52,47.52-58.58,39.78-52,24.31S815,416,789.56,444.75s-35.37,50.84-42,36.47c-6.39-13.88,6.78-62.79-17.2-41.23Z" transform="translate(-8.33 -276.24)"/></g><path class="cls-38" d="M168.66,603.68,185.32,587V553.94l-.71.2v32.59L168,603.39V729.13L217.4,790.7v50.4h.71V790.45l-49.45-61.57Z" transform="translate(-8.33 -276.24)"/><path class="cls-38" d="M247.58,535.78h-.51v79l-21.92,21.92v53.9h.71V637l21.92-21.93V535.77Z" transform="translate(-8.33 -276.24)"/><path class="cls-38" d="M283,528.36v68.72h.71V528Z" transform="translate(-8.33 -276.24)"/><polygon class="cls-38" points="613.41 473.18 612.7 473.18 612.7 413.68 640.11 386.27 640.11 209.06 640.82 209.06 640.82 386.57 613.41 413.98 613.41 473.18"/><path class="cls-38" d="M332.61,518.69v99.94h.71v-100Z" transform="translate(-8.33 -276.24)"/><path class="cls-38" d="M326,518.62v157.9l-20.38,20.39v52.5h.71V697.2l20.39-20.38V518.64Z" transform="translate(-8.33 -276.24)"/><path class="cls-38" d="M388,498.36l-.71.55v53.18L407.12,572V690.6h.71V571.68L388,551.79Z" transform="translate(-8.33 -276.24)"/><polygon class="cls-38" points="711.77 414.37 711.06 414.37 711.06 295.73 691.17 275.85 691.17 204.75 691.88 204.75 691.88 275.55 711.77 295.44 711.77 414.37"/><rect class="cls-38" x="460.54" y="242.38" width="0.71" height="91.06"/><polygon class="cls-38" points="541.39 364.92 540.68 364.92 540.68 273.16 513.27 245.75 513.27 205.83 513.98 205.83 513.98 245.46 541.39 272.87 541.39 364.92"/><rect class="cls-38" x="484.25" y="200.46" width="0.71" height="79.54"/><polygon class="cls-38" points="592.45 349.87 591.74 349.87 591.74 266.95 614.31 244.38 614.31 206.91 615.02 206.91 615.02 244.68 592.45 267.25 592.45 349.87"/><path class="cls-38" d="M744.8,677.53V746l-25.11,25.11v70.08h.72V771.37l25.11-25.11V679.83C745.26,679.07,745,678.3,744.8,677.53Z" transform="translate(-8.33 -276.24)"/><circle class="cls-38" cx="541.04" cy="364.92" r="3.76"/><circle class="cls-38" cx="399.01" cy="417.08" r="3.76"/><path class="cls-38" d="M287.23,597.87a3.76,3.76,0,1,0-3.76,3.76A3.76,3.76,0,0,0,287.23,597.87Z" transform="translate(-8.33 -276.24)"/><circle class="cls-38" cx="484.61" cy="279.6" r="3.76"/><circle class="cls-38" cx="460.77" cy="242.95" r="3.76"/><circle class="cls-39" cx="225.5" cy="690.61" r="27.3" transform="translate(-507.17 358.43) rotate(-67.5)"/><text class="cls-40" transform="translate(193.64 420.48)">HTM<tspan class="cls-41" x="38.83" y="0">L</tspan></text><circle class="cls-42" cx="297.64" cy="473.18" r="27.3"/><text class="cls-43" transform="translate(272.61 483.22)">CSS</text><circle class="cls-44" cx="460.9" cy="333.44" r="27.3"/><text class="cls-43" transform="translate(436.08 342.63)">PH<tspan class="cls-45" x="33.41" y="0">P</tspan></text><circle class="cls-38" cx="216.96" cy="839.26" r="27.3" transform="translate(-139.97 -230.65) rotate(-9.22)"/><text class="cls-43" transform="translate(186.45 573.63)">C++</text><circle class="cls-38" cx="591.78" cy="347.19" r="27.3"/><text class="cls-43" transform="translate(578.59 355.53)">Js</text><circle class="cls-46" cx="720.05" cy="690.61" r="27.3" transform="translate(-199.94 819.71) rotate(-67.78)"/><text class="cls-47" transform="translate(695.73 421.86)">&lt;/&gt;</text><circle class="cls-39" cx="611.8" cy="473.18" r="27.3"/><text class="cls-43" transform="translate(605.66 483.22)">[]</text><circle class="cls-38" cx="711.72" cy="564.92" r="27.3"/><path class="cls-48" d="M724,836.76c0-.3,0-.62,0-.93a8.87,8.87,0,0,0-.36-2.49l2.37-1.37-2.21-3.82-2.37,1.37a9,9,0,0,0-4.31-2.49v-2.74h-4.41V827a9.06,9.06,0,0,0-3.11,1.45l-2.1-1.76-2.84,3.39,2.1,1.75a8.89,8.89,0,0,0-.89,3.32l-2.7.48L704,840l2.69-.48a9.3,9.3,0,0,0,2,2.82l-1.36,2.36,3.82,2.21,1.37-2.37a8.87,8.87,0,0,0,2.49.36c.31,0,.62,0,.93,0l.94,2.56,4.15-1.51-.94-2.56a9.25,9.25,0,0,0,2.44-2.43l2.56.93,1.51-4.15Zm-9,5a5.89,5.89,0,1,1,5.89-5.89A5.89,5.89,0,0,1,715,841.72Z" transform="translate(-8.33 -276.24)"/><path class="cls-48" d="M735.51,849.75a4.87,4.87,0,0,0,0-.66,6.33,6.33,0,0,0-.25-1.75l1.66-1-1.55-2.69-1.66,1a6.47,6.47,0,0,0-3-1.75V841h-3.11v1.92a6.32,6.32,0,0,0-2.18,1L724,842.69l-2,2.38,1.47,1.23a6.34,6.34,0,0,0-.62,2.33l-1.9.34.54,3,1.89-.33a6.44,6.44,0,0,0,1.39,2l-1,1.66,2.69,1.55,1-1.66a6.27,6.27,0,0,0,1.75.25c.22,0,.44,0,.65,0l.66,1.8,2.92-1.07-.66-1.8a6.05,6.05,0,0,0,1.71-1.71l1.8.66,1.06-2.92Zm-6.34,3.48a4.14,4.14,0,1,1,4.14-4.14A4.14,4.14,0,0,1,729.17,853.23Z" transform="translate(-8.33 -276.24)"/><circle class="cls-46" cx="327" cy="347.19" r="27.3"/><path class="cls-48" d="M338.11,611.21a8.33,8.33,0,1,0-5.48,11.71l3.07,6.33a2.85,2.85,0,0,0,0,2.53l5.71,11.78a2.84,2.84,0,0,0,5.12-2.48l-5.7-11.78a2.86,2.86,0,0,0-2-1.54l-3.06-6.33A8.32,8.32,0,0,0,338.11,611.21Zm-12.49,6a5.55,5.55,0,1,1,7.82,2.33,2,2,0,0,0-.46.14,2.09,2.09,0,0,0-.39.27A5.53,5.53,0,0,1,325.62,617.26Z" transform="translate(-8.33 -276.24)"/><g class="cls-49"><path class="cls-50" d="M1065.33,555.47,716.4,1212.72a684.31,684.31,0,0,1-101.73,15.43l437.64-683.58Q1058.51,550.3,1065.33,555.47Z" transform="translate(-8.33 -276.24)"/></g><g class="cls-51"><path class="cls-52" d="M1028.22,517.71,497,1226.06c-59.33-6.57-114.6-15.21-165.21-28.65l674.55-715.72A235.51,235.51,0,0,0,1028.22,517.71Z" transform="translate(-8.33 -276.24)"/></g><g class="cls-53"><path class="cls-54" d="M1097.58,574.75l-91.66,507.78c-21.78,14.9-45.49,29.81-70.9,44.11-20.73,11.68-42.6,22.94-65.51,33.46l207.84-596.3A167.65,167.65,0,0,0,1097.58,574.75Z" transform="translate(-8.33 -276.24)"/></g><g class="cls-55"><path class="cls-56" d="M979.78,403.5,755,629.4,228.76,1158.23q-13.37-6.81-26.07-14.52-13.22-8-25.69-17.07-4.49-3.24-8.86-6.64a352.67,352.67,0,0,1-51.56-48.92q-6.18-7.18-12.11-14.82-5-6.49-9.87-13.35-6.18-8.73-12-18-10.84-17.24-20.52-36.56L755,491.39,940.22,358.55h32.47c.31,3,.67,6.16,1.08,9.43C975.13,378.71,977.05,390.73,979.78,403.5Z" transform="translate(-8.33 -276.24)"/></g></g></g><g id="Layer_3" data-name="Layer 3"><path class="cls-57" d="M867.67,1164.6H223.94a14.78,14.78,0,0,1-14.78-14.78h0A14.79,14.79,0,0,1,223.94,1135H867.67a14.79,14.79,0,0,1,14.78,14.79h0A14.78,14.78,0,0,1,867.67,1164.6Z" transform="translate(-8.33 -276.24)"/><path class="cls-58" d="M867.67,1135H867a14.57,14.57,0,0,1,.63,4,14.79,14.79,0,0,1-14.78,14.79H209.79a14.73,14.73,0,0,0,14.15,10.75H867.67a14.79,14.79,0,0,0,0-29.57Z" transform="translate(-8.33 -276.24)"/><path class="cls-59" d="M869.48,1166.53H669.92a1.93,1.93,0,1,1,0-3.86H869.48a1.93,1.93,0,1,1,0,3.86Z" transform="translate(-8.33 -276.24)"/><path class="cls-59" d="M352.76,1166.53H314.45a1.93,1.93,0,1,1,0-3.86h38.31a1.93,1.93,0,1,1,0,3.86Z" transform="translate(-8.33 -276.24)"/><path class="cls-59" d="M567.11,1166.53H366.87a1.93,1.93,0,1,1,0-3.86H567.11a1.93,1.93,0,1,1,0,3.86Z" transform="translate(-8.33 -276.24)"/><path class="cls-60" d="M415.18,1135.6l-20.51-28s2.79,1.86,21.44-.93S415.18,1135.6,415.18,1135.6Z" transform="translate(-8.33 -276.24)"/><path class="cls-61" d="M388.32,1104.43q12.23,15.61,25.94,30c1.59,1.67,4.12-.86,2.53-2.53q-13.71-14.34-25.94-30c-1.42-1.81-3.93.73-2.53,2.53Z" transform="translate(-8.33 -276.24)"/><path class="cls-62" d="M591.65,1098.21c40.75,11.45,86.92,18.77,127.39,2.42,14.21-5.74,20.25-14.5,17.63-30.29-5-30.5-17.71-60.61-34.49-98.83-12.25-27.9-20.41-55.86-43.38-77.26a129,129,0,0,0-73.11-33.52H505.92a129,129,0,0,0-73.11,33.52c-23,21.4-31.13,49.36-43.38,77.26-16.78,38.22-29.45,68.33-34.49,98.83-2.61,15.79,3.42,24.55,17.63,30.29,40.47,16.35,86.64,9,127.39-2.42" transform="translate(-8.33 -276.24)"/><path class="cls-63" d="M524.62,878.28l-18.7-17.55a129,129,0,0,0-73.11,33.52c-23,21.4-31.13,49.36-43.38,77.26-16.78,38.22-29.45,68.33-34.49,98.83-2.61,15.79,3.42,24.55,17.63,30.29,40.47,16.35,86.64,9,127.39-2.42l.09-3.62c-12.61,4-25.34,7.67-38.56,8.76a98.28,98.28,0,0,1-25.74-1.35c-6.94-1.26-13.58-3.61-20.51-4.83-16.06-2.81-54.05-4.12-51.38-28.73.77-7.06,5.61-12.59,10.36-17.48,2.67-2.74,5.46-5.39,7.91-8.34a54.88,54.88,0,0,0,7.06-11.46c7.9-16.5,10.09-35,19.52-50.94,4.32-7.3,10-13.67,14.79-20.65,5.19-7.54,7.28-14.6,9.58-23.32,1-3.76,2.79-7.63,6.2-9.48,4.72-2.57,10.89-.23,14.39,3.83s5,9.43,6.53,14.58c2.21,7.5,4.67,15,8.68,21.73,4.81,8,13.08,15.31,19.84,21.74,8.55,8.13,20.54,12.83,31.8,15.69,19.51,5,39.85,5.69,60,5.36a84.88,84.88,0,0,0,17.16-1.54A46.58,46.58,0,0,0,630.1,980.7c6.82-16.81,3.18-36.09,7.56-53.7a60.41,60.41,0,0,1,13.77-25.85,7.35,7.35,0,0,0,1.68-2.4c.71-2.08-.67-4.28-2.24-5.81-4.28-4.16-10.21-6.08-16-7.61a207.92,207.92,0,0,0-29.07-5.56c-3.46-.4-7-.75-10.17-2.23-2.49-1.17-4.61-3-7-4.42-6.27-3.82-13.84-4.7-21.14-5.49C557,866.48,546,865.39,536,869c-6.71,2.44-13,7-20.12,6.82" transform="translate(-8.33 -276.24)"/><path class="cls-64" d="M486.28,1040.65c-1.47-.42-2.95-.8-4.44-1.11-14-2.88-28.43.83-42.68,2.09-2.48.22-5.27.27-7.1-1.42-4.93-4.51,11.74-21.75,14.15-26.32A88.87,88.87,0,0,0,456.47,975a7.2,7.2,0,0,1,.92-4.16c.85-1.17,2.86-1.58,3.69-.4a3.57,3.57,0,0,1,.46,1.47c1.44,9.59,2.85,19.84,1.82,29.5-.83,7.82-3.19,12.41,3.46,19.43,4.33,4.57,10.16,7.37,15.9,9.95q14.73,6.62,29.85,12.25l-.15,4.14C503.39,1047.3,495,1043.18,486.28,1040.65Z" transform="translate(-8.33 -276.24)"/><path class="cls-64" d="M433.23,895.1a93.22,93.22,0,0,1,24.2,53.12c.24,2.26,3.82,2.28,3.57,0a97.11,97.11,0,0,0-25.25-55.64c-1.56-1.69-4.08.84-2.52,2.52Z" transform="translate(-8.33 -276.24)"/><path class="cls-64" d="M452.75,897.58A122.14,122.14,0,0,1,463,936.1c.21,2.27,3.79,2.29,3.57,0a127.39,127.39,0,0,0-10.7-40.32c-.94-2.09-4-.28-3.09,1.8Z" transform="translate(-8.33 -276.24)"/><path class="cls-64" d="M402,1054a131.82,131.82,0,0,1,50.89-14.27c3.42-.24,3.45-5.61,0-5.36a138.57,138.57,0,0,0-53.6,15c-3.07,1.58-.36,6.21,2.71,4.63Z" transform="translate(-8.33 -276.24)"/><path class="cls-65" d="M365.23,1042.67a412.31,412.31,0,0,1,37.29-101q7.11-13.47,15.19-26.37c1.22-2-1.87-3.75-3.08-1.81a415.28,415.28,0,0,0-44.88,98.26q-4.54,14.81-8,29.92c-.51,2.24,2.93,3.2,3.44,1Z" transform="translate(-8.33 -276.24)"/><path class="cls-65" d="M431.48,898a112,112,0,0,1,10.61-10.85,1.8,1.8,0,0,0,0-2.53,1.83,1.83,0,0,0-2.52,0A112.15,112.15,0,0,0,429,895.45a1.83,1.83,0,0,0,0,2.53,1.81,1.81,0,0,0,2.53,0Z" transform="translate(-8.33 -276.24)"/><path class="cls-63" d="M630.12,1103.35a98.37,98.37,0,0,0,25.75-1.35c6.93-1.26,13.57-3.61,20.51-4.83,16-2.81,54-4.12,51.37-28.73-.77-7.06-5.6-12.59-10.36-17.48-2.67-2.74-5.46-5.39-7.91-8.34a54.84,54.84,0,0,1-7.05-11.46c-7.91-16.5-10.1-35-19.52-50.94-7.44-12.56-19.38-23.08-23.18-37.57-2-7.63-.93-14.94,1.45-22.32,1.93-5.94,3.44-12.25-1.15-17.4-3.79-4.27-9-5.23-14.33-6.16-6.41-1.12-12.87-1.85-19.29-2.88-6.79-1.1-13.45-3.13-20.15-4.66s-27.71-8.21-34.09-11l13.52-17.55a129,129,0,0,1,73.11,33.52c23,21.4,31.13,49.36,43.38,77.26,16.78,38.22,29.45,68.33,34.49,98.83,2.62,15.79-3.42,24.55-17.63,30.29-40.47,16.35-86.64,9-127.39-2.42l-.09-3.62C604.17,1098.55,616.9,1102.26,630.12,1103.35Z" transform="translate(-8.33 -276.24)"/><path class="cls-64" d="M605.33,1040.65c1.47-.42,2.95-.8,4.44-1.11,14-2.88,28.43.83,42.68,2.09,2.48.22,5.27.27,7.11-1.42,4.92-4.51-11.74-21.75-14.16-26.32A88.72,88.72,0,0,1,635.15,975a7.29,7.29,0,0,0-.93-4.16c-.85-1.17-2.86-1.58-3.68-.4a3.29,3.29,0,0,0-.46,1.47c-1.44,9.59-2.86,19.84-1.83,29.5.83,7.82,3.19,12.41-3.46,19.43-4.32,4.57-10.16,7.37-15.9,9.95Q594.18,1037.39,579,1043l.15,4.14C588.22,1047.3,596.62,1043.18,605.33,1040.65Z" transform="translate(-8.33 -276.24)"/><path class="cls-63" d="M655.86,892.58a97.11,97.11,0,0,0-25.25,55.64c-.24,2.28,3.33,2.26,3.57,0a93.22,93.22,0,0,1,24.2-53.12c1.57-1.68-1-4.22-2.52-2.52Z" transform="translate(-8.33 -276.24)"/><path class="cls-63" d="M635.77,895.78a127.39,127.39,0,0,0-10.7,40.32c-.22,2.29,3.36,2.27,3.57,0a122.14,122.14,0,0,1,10.22-38.52c.94-2.08-2.14-3.9-3.09-1.8Z" transform="translate(-8.33 -276.24)"/><path class="cls-64" d="M692.36,1049.34a138.57,138.57,0,0,0-53.6-15c-3.44-.25-3.42,5.11,0,5.36A131.82,131.82,0,0,1,689.65,1054c3.07,1.58,5.78-3,2.71-4.63Z" transform="translate(-8.33 -276.24)"/><path class="cls-63" d="M729.83,1041.72a416,416,0,0,0-37.41-101.34q-7.2-13.7-15.43-26.84c-1.22-1.94-4.31-.15-3.09,1.81a412.21,412.21,0,0,1,44.68,97.91q4.44,14.55,7.8,29.41c.51,2.24,4,1.29,3.45-1Z" transform="translate(-8.33 -276.24)"/><path class="cls-63" d="M662.66,895.45a112,112,0,0,0-10.61-10.85,1.79,1.79,0,0,0-2.53,2.53A110.89,110.89,0,0,1,660.13,898a1.8,1.8,0,0,0,2.53,0,1.83,1.83,0,0,0,0-2.53Z" transform="translate(-8.33 -276.24)"/><path class="cls-66" d="M506.79,879.09c6.27,9.65,17.53,14.37,28.78,16.1,22,3.4,53.61-4.83,58.35-30.18.55-2.93.61-6.12-.84-8.73-2.46-4.39-8.25-5.58-13.27-5.42-12.92.42-24.89,6.48-37.4,9.73-13.24,3.43-20.14-1.07-32.13-3.37s-8.45,12.17-5.28,18.71A29.35,29.35,0,0,0,506.79,879.09Z" transform="translate(-8.33 -276.24)"/><path class="cls-67" d="M506.79,875.63c6.27,8.47,17.53,12.6,28.78,14.13,22,3,53.61-4.24,58.35-26.48.55-2.58.61-5.38-.84-7.67-2.46-3.85-8.25-4.89-13.27-4.75-12.92.37-24.89,5.69-37.4,8.53-13.24,3-20.14-.94-32.13-2.95s-8.45,10.68-5.28,16.42A25.7,25.7,0,0,0,506.79,875.63Z" transform="translate(-8.33 -276.24)"/><path class="cls-66" d="M490,824.58q-6.4-12.37-12.79-24.76l-1-.46c-3.11-2.91-8.44-2.53-11.64.28s-4.39,7.43-3.77,11.64,2.83,8,5.48,11.37,6.13,6.55,10.25,8.13,9.08,1.42,12.65-1.17a3.73,3.73,0,0,0,1.56-2A4.54,4.54,0,0,0,490,824.58Z" transform="translate(-8.33 -276.24)"/><path class="cls-68" d="M483.61,811.25c-1.23-2.58-2.47-5.15-3.7-7.72l-1.18.85c-2.79-3.08-8.51-.28-9.35,3.79s1.53,8.1,4.19,11.3c2.35,2.84,6.13,5.64,9.4,3.92,2-1,2.9-3.51,2.76-5.76A17.68,17.68,0,0,0,483.61,811.25Z" transform="translate(-8.33 -276.24)"/><path class="cls-66" d="M630.79,795.41c-.49-4.22-2.84-8.39-6.66-10.26s-9.07-.86-11.32,2.75l-.84.71q-3,13.62-5.92,27.23a4.48,4.48,0,0,0,.09,3.15,3.66,3.66,0,0,0,2,1.49c4.12,1.58,9,.45,12.52-2.15s6-6.47,7.79-10.51S631.29,799.64,630.79,795.41Z" transform="translate(-8.33 -276.24)"/><path class="cls-68" d="M621.71,794.64c-1.87-3.72-8.13-4.94-10-1.23l-1.35-.52c-.53,2.8-1.05,5.61-1.58,8.41a17.75,17.75,0,0,0-.38,6.72c.44,2.21,2,4.36,4.16,4.85,3.6.8,6.53-2.88,8.06-6.23C622.33,802.86,623.58,798.36,621.71,794.64Z" transform="translate(-8.33 -276.24)"/><path class="cls-66" d="M598.72,731.55c-12-10.24-26.44-9.2-52.75-10.91-17.66-1.14-38.68-.56-53.18,11-16.55,13.25-17.46,35.33-17.86,41.4-1.05,16.24,6.67,31.9,22.16,62.57,19.48,38.57,27.1,43.08,31.31,45.1,14.9,7.13,35.59,6.28,48.06-4.26,5.12-4.33,7-8.69,11.66-18.86,20.5-44.53,21.09-39.36,23.89-49.5C617.22,789.28,620.92,750.58,598.72,731.55Z" transform="translate(-8.33 -276.24)"/><path class="cls-66" d="M598.72,731.55c-11.48-10-26.2-9.18-52.75-10.91-17.66-1.14-38.68-.56-53.18,11-16,12.81-17.25,34-17.86,41.4-1.61,19.56,8.27,37.44,28,73.19,3.9,7,18.22,32.49,34.07,36.91a43.4,43.4,0,0,0,28.39-1.42c6-2.37,25.54-14.4,37.44-53.18C609,808.4,625.44,754.91,598.72,731.55Z" transform="translate(-8.33 -276.24)"/><path class="cls-68" d="M593.37,731.68l-.12-.13c-9.52-9.38-40.1-10.09-52.75-10.91-16.62-1.08-36.22-.62-50.55,9.11,6.39-.63,12.84-1.35,19.16.1a36,36,0,0,1,14.6,7.79c4.73,4.22,3.8,11.28,1.89,16.64a34.64,34.64,0,0,1-4.55,8.69c-1.73,2.4-4.46,4.45-5.48,7.28a4,4,0,0,0,.52,4c1.09,1.23,3,1.33,4.59,1.14,8.11-.92,14.63-6.63,22.58-8.13,6.17-1.17,11.72,1.79,17.45,3.53,6.69,2,12.46.28,19.24.11,9.76-.24,17.41,6.7,19.41,16,3.53,16.33,1.35,33.42-4.36,49-5.78,15.76-14.39,30.77-26.78,42.28a46.41,46.41,0,0,0,8-5.25,56.34,56.34,0,0,0,7.57-7.17,74.56,74.56,0,0,0,11.42-16.65c6.48-12.69,9.86-26.85,11.29-41C608.74,786.47,610,748.5,593.37,731.68Z" transform="translate(-8.33 -276.24)"/><path class="cls-69" d="M611.27,811.49c-2.75-1.07-3.28-10.42-3.29-12.88,0-7.17,1-14.73-2.48-21.36-2.41-4.62-6.47-8.13-9.92-12-7.52-8.5-9.37-18.67-8-29.83.92-7.72,2.14-30.15,11.3-25.57,30.43,15.25,29.24,57.63,21.22,85.68C619.24,798.37,616.25,813.41,611.27,811.49Z" transform="translate(-8.33 -276.24)"/><path class="cls-70" d="M596.71,766.47a17.57,17.57,0,0,0,.88-2.58,72.85,72.85,0,0,0,1.46-7.17c.59-3.36,1-7.92,3.83-10.29s7.35-1,9,2c1,1.94,2.91,6.74,5.85,4.09,3.89-3.53,2.82-12.46,1.85-16.93a35.61,35.61,0,0,0-8.21-16.27,42.14,42.14,0,0,0-12.5-9.51c-9.16-4.58-10.38,17.85-11.3,25.57-1.33,11.16.52,21.33,8,29.83C596,765.64,596.33,766.05,596.71,766.47Z" transform="translate(-8.33 -276.24)"/><path class="cls-69" d="M479.84,802.88c-.09-3.7-4.48-23.57.23-26.45,2.94-1.79,5.64-2.76,7.69-5.77,1.62-2.4,2.13-5.35,2.6-8.2,1-6.23,1.77-16.92-6-19.35-10.16-3.17-15,7.54-15.67,14.2-1,10.49.24,36.59,10.49,54.3A33.63,33.63,0,0,0,479.84,802.88Z" transform="translate(-8.33 -276.24)"/><path class="cls-70" d="M484.35,743.11c-10.16-3.17-15,7.54-15.67,14.2a100.72,100.72,0,0,0,.15,16.84c2,3.46,4.66,7,8.11,8.19a8.08,8.08,0,0,0,1,.23c.15-3,.73-5.29,2.12-6.14,1.06-.65,2.09-1.19,3.07-1.76a2.16,2.16,0,0,1,2.79-1.94,11,11,0,0,0,1.83-2.07c1.62-2.4,2.13-5.35,2.6-8.2C491.39,756.23,492.13,745.54,484.35,743.11Z" transform="translate(-8.33 -276.24)"/><path class="cls-71" d="M525.06,748.58c-3,2.47-5.73,5.37-8.72,7.91A95,95,0,0,1,505.65,764a168.88,168.88,0,0,0,42.24-4.91,25.08,25.08,0,0,0,7.55-2.81,9.12,9.12,0,0,0-3.71-16.75C542.66,738.34,531.92,743,525.06,748.58Z" transform="translate(-8.33 -276.24)"/><path class="cls-69" d="M518.1,679.38a76,76,0,0,0-51.82,50c-4.2,13.63-2.59,31.65,10.25,37.86a30.52,30.52,0,0,0,11.81,2.53,79.4,79.4,0,0,0,41.84-9.5c5.69-3.09,10.84-7.56,17.13-9.47,5-1.52,9.52.94,2.7,3.69-7.86,3.17-17.83,5.55-23.37,12.47a5.85,5.85,0,0,0-1.5,3.29c-.28,8.28,12.79-3,14.57-3.88,8.19-3.88,17.45-1.58,26.17-1.53a33.73,33.73,0,0,0,22.28-7.78c12-10.14,16.18-30,11.81-44.73-4.65-15.69-20.44-26.63-35.41-31.46C549.9,676.16,533,675.34,518.1,679.38Z" transform="translate(-8.33 -276.24)"/><path class="cls-72" d="M524.15,776.52s.19.14.12.08l.08.06.29.26a5.62,5.62,0,0,1,.54.55l.25.29c.06.07,0-.07,0,.06l.1.13a6.2,6.2,0,0,1,.44.69,7.43,7.43,0,0,1,.35.69c.06.13-.05-.11,0,0l.08.2.12.36a6.93,6.93,0,0,1,.2.75c0,.12.05.25.07.38s0,.11,0,0a2.28,2.28,0,0,1,0,.26.91.91,0,0,0,.9.89.9.9,0,0,0,.89-.89,8.85,8.85,0,0,0-3.6-6.34.91.91,0,0,0-1.23.32.94.94,0,0,0,.32,1.23Z" transform="translate(-8.33 -276.24)"/><g class="cls-73"><path class="cls-66" d="M624.76,790.47a16.11,16.11,0,0,1,.26,10.68c-.36,1.1,1.36,1.57,1.72.48a17.8,17.8,0,0,0-.25-11.64.92.92,0,0,0-1.1-.62.9.9,0,0,0-.63,1.1Z" transform="translate(-8.33 -276.24)"/></g><g class="cls-73"><path class="cls-66" d="M464.47,788.42a12.56,12.56,0,0,0-5,12.69c.24,1.13,2,.65,1.73-.47A10.68,10.68,0,0,1,465.37,790c.93-.67,0-2.22-.9-1.55Z" transform="translate(-8.33 -276.24)"/></g><g class="cls-74"><path class="cls-68" d="M504.35,833.37a.9.9,0,0,0,1-1.49.9.9,0,0,0-1,1.49Z" transform="translate(-8.33 -276.24)"/><path class="cls-68" d="M510.64,835.7a.9.9,0,0,0,1-1.49.9.9,0,0,0-1,1.49Z" transform="translate(-8.33 -276.24)"/><path class="cls-68" d="M506.15,837.94a.9.9,0,0,0,1-1.49.9.9,0,0,0-1,1.49Z" transform="translate(-8.33 -276.24)"/></g><g class="cls-75"><path class="cls-68" d="M582.43,833.52a.89.89,0,0,0,0-1.78.89.89,0,0,0,0,1.78Z" transform="translate(-8.33 -276.24)"/><path class="cls-68" d="M589,832a.9.9,0,0,0,0-1.79.9.9,0,0,0,0,1.79Z" transform="translate(-8.33 -276.24)"/><path class="cls-68" d="M586.47,836.32a.9.9,0,0,0,0-1.79.9.9,0,0,0,0,1.79Z" transform="translate(-8.33 -276.24)"/></g><path class="cls-65" d="M465.37,740.3c-.42-8.35,3.07-16.1,7.32-23.1a81.14,81.14,0,0,1,13.65-16.8,82.39,82.39,0,0,1,37.39-20.17c2.24-.53,1.29-4-1-3.45a86.08,86.08,0,0,0-39.62,21.72c-10.84,10.44-22.16,26-21.36,41.8.11,2.29,3.69,2.3,3.57,0Z" transform="translate(-8.33 -276.24)"/><path class="cls-59" d="M622.23,758v5.6a1.79,1.79,0,0,0,3.58,0V758a1.79,1.79,0,0,0-3.58,0Z" transform="translate(-8.33 -276.24)"/><g class="cls-76"><path class="cls-77" d="M440.29,1067.12l209.1-4.36L796.18,736.45H276q22.68,45.64,45.35,91.29Z" transform="translate(-8.33 -276.24)"/></g><path class="cls-78" d="M667.09,1137.23H422.55a9.65,9.65,0,0,1-9.65-9.65V983a19.2,19.2,0,0,1,19.2-19.2H657.54A19.21,19.21,0,0,1,676.75,983v144.56A9.66,9.66,0,0,1,667.09,1137.23Z" transform="translate(-8.33 -276.24)"/><path class="cls-79" d="M667.86,963.82h-8.23a46.06,46.06,0,0,1,.75,9.18,129.91,129.91,0,0,1-.81,18.07c-1.71,12.86-5.79,25.22-11.09,37-17.72,39.43-47.88,72.49-81.51,99.07q-6.48,5.13-13.16,10.06H672.28a4.47,4.47,0,0,0,4.47-4.46V972.7A8.88,8.88,0,0,0,667.86,963.82Z" transform="translate(-8.33 -276.24)"/><path class="cls-80" d="M422.22,979.69a8.89,8.89,0,0,1,8.88-8.88H676.54a8.88,8.88,0,0,0-8.68-7H421.78a8.87,8.87,0,0,0-8.88,8.88v160.07a4.46,4.46,0,0,0,4.46,4.46h4.86Z" transform="translate(-8.33 -276.24)"/><path class="cls-61" d="M446.88,966.77H620.29a1.79,1.79,0,0,0,0-3.57H446.88a1.79,1.79,0,0,0,0,3.57Z" transform="translate(-8.33 -276.24)"/><path class="cls-61" d="M411.06,1002.74v117a1.79,1.79,0,0,0,3.57,0v-117a1.79,1.79,0,0,0-3.57,0Z" transform="translate(-8.33 -276.24)"/><path class="cls-59" d="M670.25,1099.24v26.57a1.79,1.79,0,0,0,3.57,0v-26.57a1.79,1.79,0,0,0-3.57,0Z" transform="translate(-8.33 -276.24)"/><path class="cls-59" d="M670.71,1088.52v4.66a1.79,1.79,0,0,0,3.58,0v-4.66a1.79,1.79,0,0,0-3.58,0Z" transform="translate(-8.33 -276.24)"/><path class="cls-61" d="M630.26,1139.91c4,0,8.09,0,12.11.41.43,0-.57-.1-.18,0a1.83,1.83,0,0,0,2.2-1.25,1.79,1.79,0,0,0-1.25-2.19,9.94,9.94,0,0,0-1.55-.18c-1.76-.13-3.53-.18-5.29-.23l-6-.12a1.79,1.79,0,0,0,0,3.58Z" transform="translate(-8.33 -276.24)"/><path class="cls-61" d="M421.41,1139.31c51.75.82,103.52.46,155.28.71q22.53.12,45.07.39c2.3,0,2.3-3.55,0-3.58-53.78-.7-107.56-.42-161.34-.71q-19.5-.11-39-.38c-2.3,0-2.31,3.53,0,3.57Z" transform="translate(-8.33 -276.24)"/><path class="cls-59" d="M431.26,1063.81v-50.35a1.79,1.79,0,0,0-3.57,0v50.35a1.79,1.79,0,0,0,3.57,0Z" transform="translate(-8.33 -276.24)"/><path class="cls-81" d="M277.23,1119.72c-3.21,0-7.57,0-8-5.82v-10.56c0-3.21,1.68-6.35,8-5.82v-5.22h-3.56a11,11,0,0,0-11,11v10.56a11,11,0,0,0,11,11h3.56Z" transform="translate(-8.33 -276.24)"/><path class="cls-82" d="M331.79,1119.14v-38.89a.73.73,0,0,0-.73-.73H277.87a.73.73,0,0,0-.73.73v41.88a23.4,23.4,0,0,0,23.4,23.4h7.85a23.4,23.4,0,0,0,23.4-23.4v-3" transform="translate(-8.33 -276.24)"/><path class="cls-81" d="M289.91,1079.52v43.34a22.65,22.65,0,0,0,20.94,22.58c-.57,0-1.14.09-1.73.09h-9.31a22.67,22.67,0,0,1-22.67-22.67v-43.34Z" transform="translate(-8.33 -276.24)"/><path class="cls-81" d="M273.67,1126.76h3.56A1.81,1.81,0,0,0,279,1125v-5.23a1.81,1.81,0,0,0-1.81-1.81c-4,0-5.9-.41-6.15-4.13v-10.44a3.89,3.89,0,0,1,1.06-3c.93-.86,2.64-1.22,4.93-1a1.82,1.82,0,0,0,.31-3.62c-3.39-.28-6,.38-7.69,2a7.41,7.41,0,0,0-2.23,5.66v10.56c.42,6.31,4.76,7.41,8,7.6v1.63h-1.74a9.24,9.24,0,0,1-9.23-9.23v-6.2a1.82,1.82,0,1,0-3.63,0v6.2A12.88,12.88,0,0,0,273.67,1126.76Z" transform="translate(-8.33 -276.24)"/></g></g></svg>